<?xml version="1.0" encoding="UTF-8"?>
<svg version="1.1" xmlns="http://www.w3.org/2000/svg" width="128" height="128">
<path d="M0 0 C0.68856079 -0.00394272 1.37712158 -0.00788544 2.08654785 -0.01194763 C4.34532222 -0.01861983 6.60204027 0.01041203 8.8605957 0.04077148 C10.43666696 0.04502502 12.01274449 0.04735054 13.58882141 0.0478363 C16.88323584 0.05398783 20.17696662 0.07662476 23.47119141 0.11230469 C27.69479405 0.15768797 31.91778045 0.17233732 36.14160442 0.1760416 C39.39211607 0.18046761 42.64249835 0.19576502 45.89295387 0.21491814 C47.45068105 0.22379737 49.00842199 0.23052882 50.56616783 0.23507881 C52.7396612 0.24411407 54.91259546 0.26649466 57.0859375 0.29296875 C58.94075996 0.30892845 58.94075996 0.30892845 60.83305359 0.32521057 C63.84887695 0.59936523 63.84887695 0.59936523 66.84887695 2.59936523 C66.84887695 3.58936523 66.84887695 4.57936523 66.84887695 5.59936523 C67.83887695 5.59936523 68.82887695 5.59936523 69.84887695 5.59936523 C70.34387695 8.56936523 70.34387695 8.56936523 70.84887695 11.59936523 C71.83887695 11.59936523 72.82887695 11.59936523 73.84887695 11.59936523 C73.84887695 13.57936523 73.84887695 15.55936523 73.84887695 17.59936523 C74.83887695 17.59936523 75.82887695 17.59936523 76.84887695 17.59936523 C76.84887695 21.88936523 76.84887695 26.17936523 76.84887695 30.59936523 C77.83887695 30.59936523 78.82887695 30.59936523 79.84887695 30.59936523 C80.34387695 32.08436523 80.34387695 32.08436523 80.84887695 33.59936523 C81.50887695 33.92936523 82.16887695 34.25936523 82.84887695 34.59936523 C82.84887695 41.19936523 82.84887695 47.79936523 82.84887695 54.59936523 C81.85887695 55.09436523 81.85887695 55.09436523 80.84887695 55.59936523 C80.84887695 65.49936523 80.84887695 75.39936523 80.84887695 85.59936523 C81.50887695 85.59936523 82.16887695 85.59936523 82.84887695 85.59936523 C82.84887695 90.54936523 82.84887695 95.49936523 82.84887695 100.59936523 C85.35538737 100.50170898 87.86189779 100.40405273 90.3684082 100.30639648 C93.3152092 100.65444385 93.96704307 101.40389237 95.84887695 103.59936523 C97.95220586 104.31384166 97.95220586 104.31384166 99.84887695 104.59936523 C99.84887695 105.25936523 99.84887695 105.91936523 99.84887695 106.59936523 C101.49887695 106.92936523 103.14887695 107.25936523 104.84887695 107.59936523 C104.84887695 108.58936523 104.84887695 109.57936523 104.84887695 110.59936523 C105.83887695 110.59936523 106.82887695 110.59936523 107.84887695 110.59936523 C109.84887695 114.59936523 109.84887695 114.59936523 109.84887695 128.59936523 C92.35887695 128.59936523 74.86887695 128.59936523 56.84887695 128.59936523 C56.84887695 127.27936523 56.84887695 125.95936523 56.84887695 124.59936523 C50.53607178 124.249555 50.53607178 124.249555 44.84887695 126.59936523 C41.47282843 128.64558246 38.90201051 128.84318204 34.97875977 128.82641602 C33.2073764 128.82618942 33.2073764 128.82618942 31.40020752 128.82595825 C29.49534576 128.8104744 29.49534576 128.8104744 27.55200195 128.79467773 C26.24809509 128.79184784 24.94418823 128.78901794 23.60076904 128.78610229 C20.14178746 128.77848244 16.68297502 128.75884832 13.22406006 128.73669434 C9.69147021 128.71620026 6.15885292 128.70709298 2.6262207 128.69702148 C-4.29962983 128.67560072 -11.22536831 128.6414848 -18.15112305 128.59936523 C-18.16468521 126.84287629 -18.17434912 125.08635696 -18.18237305 123.32983398 C-18.18817383 122.35167725 -18.19397461 121.37352051 -18.19995117 120.36572266 C-18.14694833 117.36284646 -17.78574158 114.53447597 -17.15112305 111.59936523 C-16.16112305 111.59936523 -15.17112305 111.59936523 -14.15112305 111.59936523 C-13.96549805 110.14530273 -13.96549805 110.14530273 -13.77612305 108.66186523 C-13.56987305 107.65124023 -13.36362305 106.64061523 -13.15112305 105.59936523 C-12.16112305 105.10436523 -12.16112305 105.10436523 -11.15112305 104.59936523 C-10.82112305 103.60936523 -10.49112305 102.61936523 -10.15112305 101.59936523 C-9.16112305 101.59936523 -8.17112305 101.59936523 -7.15112305 101.59936523 C-6.88299805 100.98061523 -6.61487305 100.36186523 -6.33862305 99.72436523 C-5.15112305 97.59936523 -5.15112305 97.59936523 -2.15112305 95.59936523 C-2.15112305 95.26936523 -2.15112305 94.93936523 -2.15112305 94.59936523 C0.81887695 94.10436523 0.81887695 94.10436523 3.84887695 93.59936523 C3.84887695 92.93936523 3.84887695 92.27936523 3.84887695 91.59936523 C4.55915039 91.55038086 5.26942383 91.50139648 6.0012207 91.45092773 C7.37987305 91.3387793 7.37987305 91.3387793 8.78637695 91.22436523 C9.70290039 91.15475586 10.61942383 91.08514648 11.5637207 91.01342773 C12.69487305 90.8084668 12.69487305 90.8084668 13.84887695 90.59936523 C14.17887695 89.93936523 14.50887695 89.27936523 14.84887695 88.59936523 C19.13887695 88.59936523 23.42887695 88.59936523 27.84887695 88.59936523 C28.17887695 89.25936523 28.50887695 89.91936523 28.84887695 90.59936523 C31.01554362 89.7660319 31.01554362 89.7660319 31.84887695 87.59936523 C32.50887695 87.59936523 33.16887695 87.59936523 33.84887695 87.59936523 C33.84887695 86.93936523 33.84887695 86.27936523 33.84887695 85.59936523 C26.91887695 85.59936523 19.98887695 85.59936523 12.84887695 85.59936523 C12.84887695 84.93936523 12.84887695 84.27936523 12.84887695 83.59936523 C10.20887695 83.26936523 7.56887695 82.93936523 4.84887695 82.59936523 C4.84887695 81.93936523 4.84887695 81.27936523 4.84887695 80.59936523 C3.19887695 80.26936523 1.54887695 79.93936523 -0.15112305 79.59936523 C-0.15112305 78.60936523 -0.15112305 77.61936523 -0.15112305 76.59936523 C-1.01737305 76.50655273 -1.01737305 76.50655273 -1.90112305 76.41186523 C-5.03369876 75.28065734 -6.18573155 73.21988723 -8.15112305 70.59936523 C-8.81112305 70.26936523 -9.47112305 69.93936523 -10.15112305 69.59936523 C-10.48112305 68.60936523 -10.81112305 67.61936523 -11.15112305 66.59936523 C-12.14112305 65.93936523 -13.13112305 65.27936523 -14.15112305 64.59936523 C-14.15112305 63.60936523 -14.15112305 62.61936523 -14.15112305 61.59936523 C-15.14112305 61.59936523 -16.13112305 61.59936523 -17.15112305 61.59936523 C-17.9974723 56.46916085 -18.29837397 51.48929587 -18.28393555 46.28686523 C-18.28489227 45.51431396 -18.285849 44.7417627 -18.28683472 43.94580078 C-18.28751129 42.32218341 -18.28569369 40.69856325 -18.28149414 39.07495117 C-18.27613845 36.60646419 -18.28145695 34.13815913 -18.2878418 31.66967773 C-18.28718092 30.08373984 -18.28589957 28.49780205 -18.28393555 26.91186523 C-18.28697189 25.81781372 -18.28697189 25.81781372 -18.29006958 24.70166016 C-18.26983545 20.22351672 -17.87773043 16.00374602 -17.15112305 11.59936523 C-16.16112305 11.59936523 -15.17112305 11.59936523 -14.15112305 11.59936523 C-14.10987305 10.71249023 -14.06862305 9.82561523 -14.02612305 8.91186523 C-12.1267315 1.72131152 -6.84788048 -0.02802664 0 0 Z M-0.15112305 11.59936523 C-0.70799805 12.07374023 -1.26487305 12.54811523 -1.83862305 13.03686523 C-3.57991777 14.76973457 -3.57991777 14.76973457 -3.15112305 18.59936523 C-4.14112305 18.59936523 -5.13112305 18.59936523 -6.15112305 18.59936523 C-6.15112305 20.57936523 -6.15112305 22.55936523 -6.15112305 24.59936523 C-4.83112305 24.26936523 -3.51112305 23.93936523 -2.15112305 23.59936523 C-2.15112305 22.93936523 -2.15112305 22.27936523 -2.15112305 21.59936523 C-0.83112305 21.59936523 0.48887695 21.59936523 1.84887695 21.59936523 C1.84887695 22.25936523 1.84887695 22.91936523 1.84887695 23.59936523 C6.25802478 24.70165219 10.33270096 24.67591059 14.84887695 24.59936523 C15.17887695 25.58936523 15.50887695 26.57936523 15.84887695 27.59936523 C16.65325195 27.72311523 17.45762695 27.84686523 18.28637695 27.97436523 C19.55481445 28.28374023 19.55481445 28.28374023 20.84887695 28.59936523 C21.17887695 29.25936523 21.50887695 29.91936523 21.84887695 30.59936523 C23.16887695 30.59936523 24.48887695 30.59936523 25.84887695 30.59936523 C25.84887695 31.58936523 25.84887695 32.57936523 25.84887695 33.59936523 C28.81887695 32.60936523 31.78887695 31.61936523 34.84887695 30.59936523 C34.84887695 29.60936523 34.84887695 28.61936523 34.84887695 27.59936523 C37.15887695 27.26936523 39.46887695 26.93936523 41.84887695 26.59936523 C41.84887695 26.26936523 41.84887695 25.93936523 41.84887695 25.59936523 C45.80887695 24.93936523 49.76887695 24.27936523 53.84887695 23.59936523 C53.84887695 22.93936523 53.84887695 22.27936523 53.84887695 21.59936523 C55.49887695 21.59936523 57.14887695 21.59936523 58.84887695 21.59936523 C58.84887695 22.25936523 58.84887695 22.91936523 58.84887695 23.59936523 C60.16887695 23.92936523 61.48887695 24.25936523 62.84887695 24.59936523 C62.84887695 22.61936523 62.84887695 20.63936523 62.84887695 18.59936523 C61.85887695 18.10436523 61.85887695 18.10436523 60.84887695 17.59936523 C59.72387695 15.53686523 59.72387695 15.53686523 58.84887695 13.59936523 C58.18887695 13.59936523 57.52887695 13.59936523 56.84887695 13.59936523 C56.35387695 11.61936523 56.35387695 11.61936523 55.84887695 9.59936523 C49.94688496 8.58486506 44.18994986 8.42270293 38.20825195 8.39624023 C37.20425354 8.39054016 36.20025513 8.38484009 35.16583252 8.37896729 C33.05465741 8.36956165 30.94346791 8.36300106 28.83227539 8.35913086 C25.59536719 8.34935463 22.35907584 8.31826153 19.12231445 8.28686523 C17.06763071 8.28034116 15.01294245 8.27508836 12.95825195 8.27124023 C11.98950134 8.25889343 11.02075073 8.24654663 10.02264404 8.23382568 C9.12450989 8.23682678 8.22637573 8.23982788 7.30102539 8.24291992 C6.5116156 8.23927429 5.72220581 8.23562866 4.90887451 8.23187256 C2.3268492 8.69249223 1.51712695 9.62899666 -0.15112305 11.59936523 Z M62.84887695 25.59936523 C63.17887695 26.25936523 63.50887695 26.91936523 63.84887695 27.59936523 C64.50887695 27.59936523 65.16887695 27.59936523 65.84887695 27.59936523 C65.84887695 26.93936523 65.84887695 26.27936523 65.84887695 25.59936523 C64.85887695 25.59936523 63.86887695 25.59936523 62.84887695 25.59936523 Z M-9.15112305 26.59936523 C-10.85332409 32.44899261 -11.03066378 39.77278896 -9.15112305 45.59936523 C-8.49112305 45.92936523 -7.83112305 46.25936523 -7.15112305 46.59936523 C-6.74383077 48.92093121 -6.40673628 51.25624393 -6.15112305 53.59936523 C-5.16112305 53.59936523 -4.17112305 53.59936523 -3.15112305 53.59936523 C-3.15112305 55.24936523 -3.15112305 56.89936523 -3.15112305 58.59936523 C-2.49112305 58.92936523 -1.83112305 59.25936523 -1.15112305 59.59936523 C-0.82112305 60.58936523 -0.49112305 61.57936523 -0.15112305 62.59936523 C0.83887695 62.59936523 1.82887695 62.59936523 2.84887695 62.59936523 C2.84887695 63.58936523 2.84887695 64.57936523 2.84887695 65.59936523 C4.33387695 65.10436523 4.33387695 65.10436523 5.84887695 64.59936523 C6.17887695 62.28936523 6.50887695 59.97936523 6.84887695 57.59936523 C7.91585815 57.57749146 7.91585815 57.57749146 9.00439453 57.55517578 C12.22394027 57.48075518 15.44244214 57.38407523 18.66137695 57.28686523 C19.78092773 57.26430664 20.90047852 57.24174805 22.05395508 57.21850586 C23.12709961 57.18305664 24.20024414 57.14760742 25.3059082 57.11108398 C26.2956665 57.0848999 27.2854248 57.05871582 28.30517578 57.03173828 C31.23256576 56.53414661 31.96711042 55.80478576 33.84887695 53.59936523 C35.50960545 52.91804072 37.17664395 52.25194397 38.84887695 51.59936523 C40.21252978 50.64112271 41.55681864 49.65215349 42.84887695 48.59936523 C40.20887695 48.26936523 37.56887695 47.93936523 34.84887695 47.59936523 C34.35387695 45.61936523 34.35387695 45.61936523 33.84887695 43.59936523 C32.52887695 43.59936523 31.20887695 43.59936523 29.84887695 43.59936523 C29.84887695 42.93936523 29.84887695 42.27936523 29.84887695 41.59936523 C28.52887695 41.59936523 27.20887695 41.59936523 25.84887695 41.59936523 C25.84887695 42.25936523 25.84887695 42.91936523 25.84887695 43.59936523 C24.52887695 43.92936523 23.20887695 44.25936523 21.84887695 44.59936523 C21.84887695 45.25936523 21.84887695 45.91936523 21.84887695 46.59936523 C19.53887695 47.25936523 17.22887695 47.91936523 14.84887695 48.59936523 C14.84887695 48.92936523 14.84887695 49.25936523 14.84887695 49.59936523 C13.19887695 49.59936523 11.54887695 49.59936523 9.84887695 49.59936523 C9.84887695 48.93936523 9.84887695 48.27936523 9.84887695 47.59936523 C8.19887695 47.59936523 6.54887695 47.59936523 4.84887695 47.59936523 C4.84887695 46.60936523 4.84887695 45.61936523 4.84887695 44.59936523 C4.18887695 44.26936523 3.52887695 43.93936523 2.84887695 43.59936523 C2.72387695 36.84936523 2.72387695 36.84936523 3.84887695 34.59936523 C0.21887695 34.59936523 -3.41112305 34.59936523 -7.15112305 34.59936523 C-7.15112305 31.95936523 -7.15112305 29.31936523 -7.15112305 26.59936523 C-7.81112305 26.59936523 -8.47112305 26.59936523 -9.15112305 26.59936523 Z M45.84887695 47.59936523 C45.51887695 48.25936523 45.18887695 48.91936523 44.84887695 49.59936523 C45.50887695 49.59936523 46.16887695 49.59936523 46.84887695 49.59936523 C46.51887695 48.93936523 46.18887695 48.27936523 45.84887695 47.59936523 Z M29.84887695 71.59936523 C27.84887695 70.93269857 25.84887695 70.2660319 23.84887695 69.59936523 C21.78742588 69.53037423 19.72386294 69.51468797 17.66137695 69.53686523 C16.57469727 69.54588867 15.48801758 69.55491211 14.3684082 69.56420898 C13.53696289 69.57581055 12.70551758 69.58741211 11.84887695 69.59936523 C11.84887695 70.25936523 11.84887695 70.91936523 11.84887695 71.59936523 C14.73098997 72.56006957 16.54737739 72.70518407 19.53637695 72.66186523 C20.34461914 72.6528418 21.15286133 72.64381836 21.9855957 72.63452148 C22.60047852 72.62291992 23.21536133 72.61131836 23.84887695 72.59936523 C23.84887695 73.25936523 23.84887695 73.91936523 23.84887695 74.59936523 C28.46395469 75.64151215 28.46395469 75.64151215 32.84887695 74.59936523 C32.84887695 73.93936523 32.84887695 73.27936523 32.84887695 72.59936523 C35.15887695 72.59936523 37.46887695 72.59936523 39.84887695 72.59936523 C40.17887695 70.94936523 40.50887695 69.29936523 40.84887695 67.59936523 C36.88040228 67.59936523 33.05040953 69.46501019 29.84887695 71.59936523 Z " fill="#7F1F93" transform="translate(18.151123046875,-0.599365234375)"/>
<path d="M0 0 C0.6836261 -0.00073013 1.3672522 -0.00146027 2.07159424 -0.00221252 C4.31239522 0.00124778 6.55107001 0.04002801 8.79150391 0.0793457 C10.35233424 0.08867954 11.91317928 0.09579296 13.47402954 0.1007843 C17.56790114 0.11980964 21.66087564 0.1688703 25.75439453 0.2243042 C29.93721381 0.27559411 34.12017907 0.29831902 38.30322266 0.32348633 C46.5002474 0.37699482 54.69654508 0.46225171 62.89306641 0.56762695 C63.18181641 1.36040039 63.47056641 2.15317383 63.76806641 2.9699707 C65.05644743 5.94487828 66.31326246 6.71339287 68.89306641 8.56762695 C69.59055224 9.88510019 70.26266597 11.21676889 70.89306641 12.56762695 C71.88306641 13.06262695 71.88306641 13.06262695 72.89306641 13.56762695 C72.89306641 17.52762695 72.89306641 21.48762695 72.89306641 25.56762695 C73.88306641 25.56762695 74.87306641 25.56762695 75.89306641 25.56762695 C75.56306641 28.20762695 75.23306641 30.84762695 74.89306641 33.56762695 C68.14306641 35.69262695 68.14306641 35.69262695 65.89306641 34.56762695 C65.26806641 32.50512695 65.26806641 32.50512695 64.89306641 30.56762695 C64.39806641 31.06262695 64.39806641 31.06262695 63.89306641 31.56762695 C62.46478059 31.93845978 61.02485518 32.26505909 59.58056641 32.56762695 C56.6690645 33.18361413 53.77605195 33.82873821 50.89306641 34.56762695 C50.94527344 35.59823242 50.94527344 35.59823242 50.99853516 36.6496582 C51.02560547 37.55071289 51.05267578 38.45176758 51.08056641 39.38012695 C51.13277344 40.72010742 51.13277344 40.72010742 51.18603516 42.0871582 C50.89306641 44.56762695 50.89306641 44.56762695 49.79931641 46.38012695 C46.9381931 48.16246606 44.53470537 47.85401227 41.20556641 47.75512695 C39.43632813 47.71452148 39.43632813 47.71452148 37.63134766 47.6730957 C36.72771484 47.63829102 35.82408203 47.60348633 34.89306641 47.56762695 C34.56306641 46.57762695 34.23306641 45.58762695 33.89306641 44.56762695 C31.87798282 43.83438899 31.87798282 43.83438899 29.89306641 43.56762695 C29.89306641 42.90762695 29.89306641 42.24762695 29.89306641 41.56762695 C28.57306641 41.56762695 27.25306641 41.56762695 25.89306641 41.56762695 C25.89306641 42.22762695 25.89306641 42.88762695 25.89306641 43.56762695 C24.90306641 43.89762695 23.91306641 44.22762695 22.89306641 44.56762695 C21.87202089 45.5461289 20.87245431 46.54743122 19.89306641 47.56762695 C18.90306641 48.22762695 17.91306641 48.88762695 16.89306641 49.56762695 C16.89306641 49.89762695 16.89306641 50.22762695 16.89306641 50.56762695 C14.25306641 50.56762695 11.61306641 50.56762695 8.89306641 50.56762695 C9.22306641 49.57762695 9.55306641 48.58762695 9.89306641 47.56762695 C8.24306641 47.56762695 6.59306641 47.56762695 4.89306641 47.56762695 C4.89306641 46.57762695 4.89306641 45.58762695 4.89306641 44.56762695 C3.40806641 44.07262695 3.40806641 44.07262695 1.89306641 43.56762695 C1.85064917 41.2346792 1.85213703 38.90060128 1.89306641 36.56762695 C2.22306641 36.23762695 2.55306641 35.90762695 2.89306641 35.56762695 C-0.40693359 35.23762695 -3.70693359 34.90762695 -7.10693359 34.56762695 C-7.10693359 31.92762695 -7.10693359 29.28762695 -7.10693359 26.56762695 C-7.76693359 26.56762695 -8.42693359 26.56762695 -9.10693359 26.56762695 C-9.16107159 28.81736142 -9.19978851 31.06747078 -9.23193359 33.31762695 C-9.25513672 34.5705957 -9.27833984 35.82356445 -9.30224609 37.11450195 C-9.11969224 40.34205409 -8.7927546 41.89528847 -7.10693359 44.56762695 C-5.628611 47.52427215 -6.04660577 50.30992432 -6.10693359 53.56762695 C-5.11693359 53.56762695 -4.12693359 53.56762695 -3.10693359 53.56762695 C-2.77693359 55.21762695 -2.44693359 56.86762695 -2.10693359 58.56762695 C-1.44693359 58.56762695 -0.78693359 58.56762695 -0.10693359 58.56762695 C-0.10693359 59.88762695 -0.10693359 61.20762695 -0.10693359 62.56762695 C0.88306641 62.56762695 1.87306641 62.56762695 2.89306641 62.56762695 C2.89306641 63.55762695 2.89306641 64.54762695 2.89306641 65.56762695 C3.88306641 65.07262695 3.88306641 65.07262695 4.89306641 64.56762695 C5.26707426 62.24046695 5.60071373 59.90644834 5.89306641 57.56762695 C7.66797187 55.79272149 10.27091543 56.33262723 12.67822266 56.2512207 C13.84804688 56.20932617 15.01787109 56.16743164 16.22314453 56.12426758 C17.45484375 56.08495117 18.68654297 56.04563477 19.95556641 56.00512695 C21.80891602 55.94035156 21.80891602 55.94035156 23.69970703 55.87426758 C26.76403976 55.76778497 29.82845714 55.66577271 32.89306641 55.56762695 C33.22306641 54.57762695 33.55306641 53.58762695 33.89306641 52.56762695 C36.53306641 52.56762695 39.17306641 52.56762695 41.89306641 52.56762695 C42.38806641 51.57762695 42.38806641 51.57762695 42.89306641 50.56762695 C43.88306641 50.89762695 44.87306641 51.22762695 45.89306641 51.56762695 C47.01806641 58.19262695 47.01806641 58.19262695 45.89306641 61.56762695 C47.87306641 62.06262695 47.87306641 62.06262695 49.89306641 62.56762695 C50.41806361 68.55259509 49.90990533 71.25657749 46.12744141 75.8996582 C44.39889821 78.23537955 43.78575391 80.82580105 42.89306641 83.56762695 C41.90306641 84.22762695 40.91306641 84.88762695 39.89306641 85.56762695 C38.70074027 87.6176665 38.70074027 87.6176665 37.89306641 89.56762695 C36.90306641 89.07262695 36.90306641 89.07262695 35.89306641 88.56762695 C35.89306641 87.90762695 35.89306641 87.24762695 35.89306641 86.56762695 C28.30306641 86.23762695 20.71306641 85.90762695 12.89306641 85.56762695 C12.89306641 84.90762695 12.89306641 84.24762695 12.89306641 83.56762695 C10.25306641 83.23762695 7.61306641 82.90762695 4.89306641 82.56762695 C4.89306641 81.90762695 4.89306641 81.24762695 4.89306641 80.56762695 C3.24306641 80.23762695 1.59306641 79.90762695 -0.10693359 79.56762695 C-0.10693359 78.57762695 -0.10693359 77.58762695 -0.10693359 76.56762695 C-0.97318359 76.47481445 -0.97318359 76.47481445 -1.85693359 76.38012695 C-4.9895093 75.24891906 -6.1415421 73.18814895 -8.10693359 70.56762695 C-8.76693359 70.23762695 -9.42693359 69.90762695 -10.10693359 69.56762695 C-10.43693359 68.57762695 -10.76693359 67.58762695 -11.10693359 66.56762695 C-12.09693359 65.90762695 -13.08693359 65.24762695 -14.10693359 64.56762695 C-14.10693359 63.57762695 -14.10693359 62.58762695 -14.10693359 61.56762695 C-15.09693359 61.56762695 -16.08693359 61.56762695 -17.10693359 61.56762695 C-17.95328284 56.43742257 -18.25418452 51.45755758 -18.23974609 46.25512695 C-18.24070282 45.48257568 -18.24165955 44.71002441 -18.24264526 43.9140625 C-18.24332184 42.29044513 -18.24150424 40.66682497 -18.23730469 39.04321289 C-18.231949 36.57472591 -18.23726749 34.10642085 -18.24365234 31.63793945 C-18.24299147 30.05200156 -18.24171011 28.46606377 -18.23974609 26.88012695 C-18.24278244 25.78607544 -18.24278244 25.78607544 -18.24588013 24.66992188 C-18.22564599 20.19177844 -17.83354097 15.97200774 -17.10693359 11.56762695 C-16.11693359 11.56762695 -15.12693359 11.56762695 -14.10693359 11.56762695 C-14.06568359 10.68075195 -14.02443359 9.79387695 -13.98193359 8.88012695 C-12.0873681 1.70784328 -6.83607803 -0.06169746 0 0 Z M-0.10693359 11.56762695 C-0.66380859 12.04200195 -1.22068359 12.51637695 -1.79443359 13.00512695 C-3.53572832 14.73799629 -3.53572832 14.73799629 -3.10693359 18.56762695 C-4.09693359 18.56762695 -5.08693359 18.56762695 -6.10693359 18.56762695 C-6.10693359 20.54762695 -6.10693359 22.52762695 -6.10693359 24.56762695 C-4.78693359 24.23762695 -3.46693359 23.90762695 -2.10693359 23.56762695 C-2.10693359 22.90762695 -2.10693359 22.24762695 -2.10693359 21.56762695 C-0.78693359 21.56762695 0.53306641 21.56762695 1.89306641 21.56762695 C1.89306641 22.22762695 1.89306641 22.88762695 1.89306641 23.56762695 C6.30221424 24.66991391 10.37689042 24.64417231 14.89306641 24.56762695 C15.22306641 25.55762695 15.55306641 26.54762695 15.89306641 27.56762695 C16.69744141 27.69137695 17.50181641 27.81512695 18.33056641 27.94262695 C19.59900391 28.25200195 19.59900391 28.25200195 20.89306641 28.56762695 C21.22306641 29.22762695 21.55306641 29.88762695 21.89306641 30.56762695 C23.21306641 30.56762695 24.53306641 30.56762695 25.89306641 30.56762695 C25.89306641 31.55762695 25.89306641 32.54762695 25.89306641 33.56762695 C28.86306641 32.57762695 31.83306641 31.58762695 34.89306641 30.56762695 C34.89306641 29.57762695 34.89306641 28.58762695 34.89306641 27.56762695 C37.20306641 27.23762695 39.51306641 26.90762695 41.89306641 26.56762695 C41.89306641 26.23762695 41.89306641 25.90762695 41.89306641 25.56762695 C45.85306641 24.90762695 49.81306641 24.24762695 53.89306641 23.56762695 C53.89306641 22.90762695 53.89306641 22.24762695 53.89306641 21.56762695 C55.54306641 21.56762695 57.19306641 21.56762695 58.89306641 21.56762695 C58.89306641 22.22762695 58.89306641 22.88762695 58.89306641 23.56762695 C60.21306641 23.89762695 61.53306641 24.22762695 62.89306641 24.56762695 C62.89306641 22.58762695 62.89306641 20.60762695 62.89306641 18.56762695 C61.90306641 18.07262695 61.90306641 18.07262695 60.89306641 17.56762695 C59.76806641 15.50512695 59.76806641 15.50512695 58.89306641 13.56762695 C58.23306641 13.56762695 57.57306641 13.56762695 56.89306641 13.56762695 C56.39806641 11.58762695 56.39806641 11.58762695 55.89306641 9.56762695 C49.99107441 8.55312678 44.23413931 8.39096465 38.25244141 8.36450195 C37.24844299 8.35880188 36.24444458 8.35310181 35.21002197 8.347229 C33.09884686 8.33782337 30.98765736 8.33126278 28.87646484 8.32739258 C25.63955664 8.31761635 22.40326529 8.28652324 19.16650391 8.25512695 C17.11182016 8.24860288 15.0571319 8.24335008 13.00244141 8.23950195 C12.0336908 8.22715515 11.06494019 8.21480835 10.0668335 8.2020874 C9.16869934 8.2050885 8.27056519 8.2080896 7.34521484 8.21118164 C6.55580505 8.20753601 5.76639526 8.20389038 4.95306396 8.20013428 C2.37103865 8.66075395 1.5613164 9.59725838 -0.10693359 11.56762695 Z M62.89306641 25.56762695 C63.22306641 26.22762695 63.55306641 26.88762695 63.89306641 27.56762695 C64.55306641 27.56762695 65.21306641 27.56762695 65.89306641 27.56762695 C65.89306641 26.90762695 65.89306641 26.24762695 65.89306641 25.56762695 C64.90306641 25.56762695 63.91306641 25.56762695 62.89306641 25.56762695 Z M29.89306641 71.56762695 C27.89306641 70.90096029 25.89306641 70.23429362 23.89306641 69.56762695 C21.83161533 69.49863595 19.76805239 69.48294968 17.70556641 69.50512695 C16.61888672 69.51415039 15.53220703 69.52317383 14.41259766 69.5324707 C13.58115234 69.54407227 12.74970703 69.55567383 11.89306641 69.56762695 C11.89306641 70.22762695 11.89306641 70.88762695 11.89306641 71.56762695 C14.77517943 72.52833129 16.59156685 72.67344579 19.58056641 72.63012695 C20.38880859 72.62110352 21.19705078 72.61208008 22.02978516 72.6027832 C22.64466797 72.59118164 23.25955078 72.57958008 23.89306641 72.56762695 C23.89306641 73.22762695 23.89306641 73.88762695 23.89306641 74.56762695 C28.50814414 75.60977387 28.50814414 75.60977387 32.89306641 74.56762695 C32.89306641 73.90762695 32.89306641 73.24762695 32.89306641 72.56762695 C35.20306641 72.56762695 37.51306641 72.56762695 39.89306641 72.56762695 C40.22306641 70.91762695 40.55306641 69.26762695 40.89306641 67.56762695 C36.92459173 67.56762695 33.09459898 69.4332719 29.89306641 71.56762695 Z " fill="#9023A7" transform="translate(18.10693359375,-0.567626953125)"/>
<path d="M0 0 C4.29 0 8.58 0 13 0 C13.495 1.98 13.495 1.98 14 4 C12.375 5.9375 12.375 5.9375 10 8 C9.13375 8.86625 8.2675 9.7325 7.375 10.625 C5.91666667 12.08333333 4.45833333 13.54166667 3 15 C2.1805069 22.01358381 2.70290893 27.78625145 6 34 C8 38.84210526 8 38.84210526 8 40 C-5.53 40 -19.06 40 -33 40 C-33 27.625 -33 27.625 -32 23 C-31.01 23 -30.02 23 -29 23 C-28.814375 21.5459375 -28.814375 21.5459375 -28.625 20.0625 C-28.41875 19.051875 -28.2125 18.04125 -28 17 C-27.34 16.67 -26.68 16.34 -26 16 C-25.67 15.01 -25.34 14.02 -25 13 C-24.01 13 -23.02 13 -22 13 C-21.731875 12.38125 -21.46375 11.7625 -21.1875 11.125 C-20 9 -20 9 -17 7 C-17 6.67 -17 6.34 -17 6 C-15.02 5.67 -13.04 5.34 -11 5 C-11 4.34 -11 3.68 -11 3 C-10.28972656 2.95101562 -9.57945313 2.90203125 -8.84765625 2.8515625 C-7.92855469 2.77679688 -7.00945313 2.70203125 -6.0625 2.625 C-5.14597656 2.55539063 -4.22945312 2.48578125 -3.28515625 2.4140625 C-2.53105469 2.27742188 -1.77695312 2.14078125 -1 2 C-0.67 1.34 -0.34 0.68 0 0 Z " fill="#460565" transform="translate(33,88)"/>
<path d="M0 0 C0.99 0.33 1.98 0.66 3 1 C4.125 7.625 4.125 7.625 3 11 C4.32 11.33 5.64 11.66 7 12 C7.5249972 17.98496813 7.01683892 20.68895053 3.234375 25.33203125 C1.5058318 27.6677526 0.8926875 30.2581741 0 33 C-0.99 33.66 -1.98 34.32 -3 35 C-4.19232613 37.05003955 -4.19232613 37.05003955 -5 39 C-5.99 38.505 -5.99 38.505 -7 38 C-7 37.34 -7 36.68 -7 36 C-14.59 35.67 -22.18 35.34 -30 35 C-30 34.34 -30 33.68 -30 33 C-32.64 32.67 -35.28 32.34 -38 32 C-38 31.34 -38 30.68 -38 30 C-39.65 29.67 -41.3 29.34 -43 29 C-43 28.01 -43 27.02 -43 26 C-43.639375 25.896875 -44.27875 25.79375 -44.9375 25.6875 C-45.618125 25.460625 -46.29875 25.23375 -47 25 C-47.33 24.01 -47.66 23.02 -48 22 C-47.505 22.309375 -47.01 22.61875 -46.5 22.9375 C-43.02013219 24.41644382 -39.75971491 24.62402851 -36 25 C-35.67 24.01 -35.34 23.02 -35 22 C-37.72224824 19.04487405 -37.72224824 19.04487405 -41.1875 17.125 C-43 16 -43 16 -43.75 12.875 C-43.8325 11.92625 -43.915 10.9775 -44 10 C-44.99 9.67 -45.98 9.34 -47 9 C-47.33 7.02 -47.66 5.04 -48 3 C-47.34 3 -46.68 3 -46 3 C-45.67 4.65 -45.34 6.3 -45 8 C-44.34 8 -43.68 8 -43 8 C-43 9.32 -43 10.64 -43 12 C-42.01 12 -41.02 12 -40 12 C-40 12.99 -40 13.98 -40 15 C-39.34 14.67 -38.68 14.34 -38 14 C-37.62599214 11.67284 -37.29235267 9.33882138 -37 7 C-35.22509454 5.22509454 -32.62215098 5.76500027 -30.21484375 5.68359375 C-29.04501953 5.64169922 -27.87519531 5.59980469 -26.66992188 5.55664062 C-25.43822266 5.51732422 -24.20652344 5.47800781 -22.9375 5.4375 C-21.08415039 5.37272461 -21.08415039 5.37272461 -19.19335938 5.30664062 C-16.12902665 5.20015802 -13.06460927 5.09814576 -10 5 C-9.67 4.01 -9.34 3.02 -9 2 C-6.36 2 -3.72 2 -1 2 C-0.67 1.34 -0.34 0.68 0 0 Z M-13 21 C-15 20.33333333 -17 19.66666667 -19 19 C-21.06145107 18.931009 -23.12501401 18.91532273 -25.1875 18.9375 C-26.27417969 18.94652344 -27.36085938 18.95554687 -28.48046875 18.96484375 C-29.31191406 18.97644531 -30.14335937 18.98804687 -31 19 C-31 19.66 -31 20.32 -31 21 C-28.11788698 21.96070434 -26.30149956 22.10581883 -23.3125 22.0625 C-22.50425781 22.05347656 -21.69601563 22.04445313 -20.86328125 22.03515625 C-20.24839844 22.02355469 -19.63351563 22.01195312 -19 22 C-19 22.66 -19 23.32 -19 24 C-14.38492226 25.04214691 -14.38492226 25.04214691 -10 24 C-10 23.34 -10 22.68 -10 22 C-7.69 22 -5.38 22 -3 22 C-2.67 20.35 -2.34 18.7 -2 17 C-5.96847467 17 -9.79846743 18.86564495 -13 21 Z " fill="#9629AC" transform="translate(61,50)"/>
<path d="M0 0 C1.40388729 0.00933557 2.80779097 0.01644817 4.21170044 0.0214386 C7.8913336 0.04045067 11.56996632 0.08949859 15.24920654 0.1449585 C19.00975005 0.1962779 22.7704566 0.21897951 26.53125 0.24414062 C33.89889161 0.29762545 41.26571142 0.38286484 48.6328125 0.48828125 C48.6328125 1.14828125 48.6328125 1.80828125 48.6328125 2.48828125 C50.2828125 3.14828125 51.9328125 3.80828125 53.6328125 4.48828125 C53.3028125 5.14828125 52.9728125 5.80828125 52.6328125 6.48828125 C51.55 5.77671875 51.55 5.77671875 50.4453125 5.05078125 C45.9999569 2.58113925 42.75664541 2.23597438 37.85546875 3.4140625 C30.98996008 4.78393829 24.20605493 4.7550571 17.2409668 4.6940918 C15.04269084 4.67554825 12.84483131 4.6735847 10.64648438 4.67382812 C-0.07112488 4.63631256 -0.07112488 4.63631256 -2.3671875 3.48828125 C-2.3671875 4.14828125 -2.3671875 4.80828125 -2.3671875 5.48828125 C-3.1715625 5.96265625 -3.9759375 6.43703125 -4.8046875 6.92578125 C-7.6589951 8.28811797 -7.6589951 8.28811797 -8.3671875 11.48828125 C-9.0271875 11.48828125 -9.6871875 11.48828125 -10.3671875 11.48828125 C-10.3671875 12.47828125 -10.3671875 13.46828125 -10.3671875 14.48828125 C-11.6871875 14.48828125 -13.0071875 14.48828125 -14.3671875 14.48828125 C-14.3671875 17.12828125 -14.3671875 19.76828125 -14.3671875 22.48828125 C-15.0271875 22.81828125 -15.6871875 23.14828125 -16.3671875 23.48828125 C-17.0271875 23.15828125 -17.6871875 22.82828125 -18.3671875 22.48828125 C-18.3671875 24.79828125 -18.3671875 27.10828125 -18.3671875 29.48828125 C-19.3571875 29.81828125 -20.3471875 30.14828125 -21.3671875 30.48828125 C-21.02491178 33.45893634 -21.02491178 33.45893634 -20.3671875 36.48828125 C-19.7071875 36.81828125 -19.0471875 37.14828125 -18.3671875 37.48828125 C-17.72560151 40.05462519 -17.34519604 42.62651331 -16.9296875 45.23828125 C-16.7440625 45.98078125 -16.5584375 46.72328125 -16.3671875 47.48828125 C-15.7071875 47.81828125 -15.0471875 48.14828125 -14.3671875 48.48828125 C-14.3671875 50.13828125 -14.3671875 51.78828125 -14.3671875 53.48828125 C-13.3771875 53.81828125 -12.3871875 54.14828125 -11.3671875 54.48828125 C-11.2434375 55.29265625 -11.1196875 56.09703125 -10.9921875 56.92578125 C-10.7859375 57.77140625 -10.5796875 58.61703125 -10.3671875 59.48828125 C-9.7071875 59.81828125 -9.0471875 60.14828125 -8.3671875 60.48828125 C-8.0784375 61.47828125 -7.7896875 62.46828125 -7.4921875 63.48828125 C-6.9353125 64.97328125 -6.9353125 64.97328125 -6.3671875 66.48828125 C-4.33475202 67.45705182 -4.33475202 67.45705182 -2.3671875 67.48828125 C-2.3671875 68.14828125 -2.3671875 68.80828125 -2.3671875 69.48828125 C-0.8821875 69.98328125 -0.8821875 69.98328125 0.6328125 70.48828125 C1.3203125 72.55078125 1.3203125 72.55078125 1.6328125 74.48828125 C-1.3671875 76.48828125 -1.3671875 76.48828125 -4.9296875 76.23828125 C-8.3671875 75.48828125 -8.3671875 75.48828125 -10.3671875 73.48828125 C-11.32625 73.27171875 -11.32625 73.27171875 -12.3046875 73.05078125 C-14.80273005 72.36949692 -15.75328627 71.48644468 -17.3671875 69.48828125 C-17.6971875 68.49828125 -18.0271875 67.50828125 -18.3671875 66.48828125 C-19.3571875 65.82828125 -20.3471875 65.16828125 -21.3671875 64.48828125 C-21.3671875 63.49828125 -21.3671875 62.50828125 -21.3671875 61.48828125 C-22.3571875 61.48828125 -23.3471875 61.48828125 -24.3671875 61.48828125 C-25.21353675 56.35807687 -25.51443843 51.37821188 -25.5 46.17578125 C-25.50095673 45.40322998 -25.50191345 44.63067871 -25.50289917 43.8347168 C-25.50357575 42.21109943 -25.50175815 40.58747927 -25.49755859 38.96386719 C-25.4922029 36.49538021 -25.4975214 34.02707515 -25.50390625 31.55859375 C-25.50324538 29.97265585 -25.50196402 28.38671807 -25.5 26.80078125 C-25.50303635 25.70672974 -25.50303635 25.70672974 -25.50613403 24.59057617 C-25.4858999 20.11243274 -25.09379488 15.89266204 -24.3671875 11.48828125 C-23.3771875 11.48828125 -22.3871875 11.48828125 -21.3671875 11.48828125 C-21.3259375 10.60140625 -21.2846875 9.71453125 -21.2421875 8.80078125 C-20.33349457 5.36072944 -19.35719923 3.70947549 -16.55804443 1.51821899 C-11.47260652 -0.87248228 -5.50459527 -0.10758609 0 0 Z " fill="#B237C9" transform="translate(25.3671875,-0.48828125)"/>
<path d="M0 0 C1.32 0.66 2.64 1.32 4 2 C4 2.99 4 3.98 4 5 C4.99 5 5.98 5 7 5 C7.495 7.97 7.495 7.97 8 11 C8.99 11 9.98 11 11 11 C11 12.98 11 14.96 11 17 C11.99 17 12.98 17 14 17 C14 21.29 14 25.58 14 30 C14.99 30 15.98 30 17 30 C17.495 31.485 17.495 31.485 18 33 C18.99 33.495 18.99 33.495 20 34 C20 40.6 20 47.2 20 54 C19.01 54.495 19.01 54.495 18 55 C17.67 67.54 17.34 80.08 17 93 C15.02 93.495 15.02 93.495 13 94 C12.67 94.66 12.34 95.32 12 96 C11.12025173 93.36075519 10.83378897 91.6238108 10.71875 88.90234375 C10.68168945 88.10530029 10.64462891 87.30825684 10.60644531 86.48706055 C10.57131836 85.64570557 10.53619141 84.80435059 10.5 83.9375 C10.26732193 78.64606266 9.9907434 73.43711624 9.25 68.1875 C8.76561257 64.05936233 9.68182556 61.52362515 12 58 C11.01 57.67 10.02 57.34 9 57 C9.23009766 56.24976562 9.23009766 56.24976562 9.46484375 55.484375 C10.19457396 52.09672234 10.36356477 48.70038481 10.5625 45.25 C10.62727539 44.20392578 10.62727539 44.20392578 10.69335938 43.13671875 C10.79889596 41.42468078 10.8998991 39.71236439 11 38 C8.13275314 38.57344937 7.1385485 38.8614515 5 41 C4.34 39.35 3.68 37.7 3 36 C3 38.64 3 41.28 3 44 C2.34 43.67 1.68 43.34 1 43 C0.375 39.9375 0.375 39.9375 0 37 C-1.32 36.67 -2.64 36.34 -4 36 C-4 37.65 -4 39.3 -4 41 C-4.99 41.495 -4.99 41.495 -6 42 C-5.88140625 42.60328125 -5.7628125 43.2065625 -5.640625 43.828125 C-5.24802788 46.26222716 -4.96158694 48.53302775 -5 51 C-6.8125 53.375 -6.8125 53.375 -9 55 C-9.66 55.99 -10.32 56.98 -11 58 C-11.33 56.68 -11.66 55.36 -12 54 C-12.33 54.99 -12.66 55.98 -13 57 C-14.485 57.495 -14.485 57.495 -16 58 C-16.99 54.535 -16.99 54.535 -18 51 C-19.65 51.66 -21.3 52.32 -23 53 C-23.66 52.34 -24.32 51.68 -25 51 C-25 49 -25 49 -23 47 C-19.9375 46.875 -19.9375 46.875 -17 47 C-15.8115952 47.10199469 -15.8115952 47.10199469 -14.48046875 45.82421875 C-12.55876022 43.45630877 -12.50836092 41.82875819 -12.3125 38.8125 C-12.24675781 37.91144531 -12.18101563 37.01039062 -12.11328125 36.08203125 C-12.07589844 35.39496094 -12.03851563 34.70789062 -12 34 C-10.7625 33.54625 -9.525 33.0925 -8.25 32.625 C-5.40617054 31.55982006 -2.67780568 30.44189536 0 29 C0.66 28.67 1.32 28.34 2 28 C3 30 4 32 5 34 C7.31 33.67 9.62 33.34 12 33 C12.33 30.36 12.66 27.72 13 25 C12.01 25 11.02 25 10 25 C10 21.04 10 17.08 10 13 C8.68 12.34 7.36 11.68 6 11 C6 10.01 6 9.02 6 8 C5.38125 7.71125 4.7625 7.4225 4.125 7.125 C2 6 2 6 0 4 C0 2.68 0 1.36 0 0 Z " fill="#9328A8" transform="translate(81,0)"/>
<path d="M0 0 C2.31 0 4.62 0 7 0 C7.2475 0.763125 7.495 1.52625 7.75 2.3125 C9.13989393 5.30077195 10.38052376 6.11725146 13 8 C13.69748583 9.31747324 14.36959957 10.64914193 15 12 C15.99 12.495 15.99 12.495 17 13 C17 16.96 17 20.92 17 25 C17.99 25 18.98 25 20 25 C19.67 27.64 19.34 30.28 19 33 C12.25 35.125 12.25 35.125 10 34 C10.02320312 33.22914062 10.04640625 32.45828125 10.0703125 31.6640625 C10.08835937 30.66117188 10.10640625 29.65828125 10.125 28.625 C10.14820312 27.62726562 10.17140625 26.62953125 10.1953125 25.6015625 C10.27216848 22.83737827 10.27216848 22.83737827 8 21 C8 20.01 8 19.02 8 18 C6.68 18 5.36 18 4 18 C3.8453125 17.1028125 3.8453125 17.1028125 3.6875 16.1875 C2.90614947 13.70138466 1.85104584 12.77056558 0 11 C0 10.34 0 9.68 0 9 C-18.15 9 -36.3 9 -55 9 C-55.66 10.65 -56.32 12.3 -57 14 C-57.66 14 -58.32 14 -59 14 C-59 13.01 -59 12.02 -59 11 C-58.34 11 -57.68 11 -57 11 C-56.87625 10.38125 -56.7525 9.7625 -56.625 9.125 C-56 7 -56 7 -54 5 C-53.01 5 -52.02 5 -51 5 C-51 4.34 -51 3.68 -51 3 C-50.03288086 3.01047363 -49.06576172 3.02094727 -48.06933594 3.03173828 C-44.42386694 3.06839541 -40.77841364 3.09106377 -37.1328125 3.10986328 C-35.56572719 3.11981813 -33.99865993 3.1333869 -32.43164062 3.15087891 C-23.88370182 3.24379128 -15.8030547 3.15768992 -7.40380859 1.29882812 C-3.54600214 0.81924707 -1.3248855 2.12071689 2 4 C2.66 4 3.32 4 4 4 C2.68 3.34 1.36 2.68 0 2 C0 1.34 0 0.68 0 0 Z " fill="#B438CB" transform="translate(74,0)"/>
<path d="M0 0 C0.99 0 1.98 0 3 0 C5.71420466 4.07130699 5.41110299 7.22189734 5 12 C4.68195123 13.40450337 4.32924283 14.80174307 3.9375 16.1875 C2.97607367 20.09730043 2.70696129 22.20708645 4 26 C6.4390706 28.20142332 6.4390706 28.20142332 9 30 C9.495 31.485 9.495 31.485 10 33 C16.27 33.33 22.54 33.66 29 34 C29.495 35.98 29.495 35.98 30 38 C20.76 38 11.52 38 2 38 C2 36.68 2 35.36 2 34 C-4.31280517 33.65018976 -4.31280517 33.65018976 -10 36 C-13.70416006 38.37625362 -16.9201143 38.20518307 -21.25 38.125 C-23.14492188 38.09792969 -23.14492188 38.09792969 -25.078125 38.0703125 C-26.52445313 38.03550781 -26.52445313 38.03550781 -28 38 C-27.67 36.68 -27.34 35.36 -27 34 C-26.113125 33.938125 -25.22625 33.87625 -24.3125 33.8125 C-20.23537635 32.8124508 -18.80656795 31.03412752 -16 28 C-15.01 27.67 -14.02 27.34 -13 27 C-12.67 26.01 -12.34 25.02 -12 24 C-9.69 24 -7.38 24 -5 24 C-4.41639845 17.65333314 -3.85508518 11.37625222 -4 5 C-2.68 4.67 -1.36 4.34 0 4 C0 2.68 0 1.36 0 0 Z " fill="#9226A7" transform="translate(73,90)"/>
<path d="M0 0 C-0.33 0.99 -0.66 1.98 -1 3 C-1.66 3 -2.32 3 -3 3 C-2.85775413 5.52108103 -2.71129879 8.04180403 -2.5625 10.5625 C-2.52318359 11.26697266 -2.48386719 11.97144531 -2.44335938 12.69726562 C-2.17481721 17.1798541 -1.69383803 21.56293497 -1 26 C-5.54538248 27.83979767 -8.24223484 28.04670833 -13 27 C-15.66782762 26.58238426 -18.3106572 26.27349249 -21 26 C-21.33 26.33 -21.66 26.66 -22 27 C-25 27.125 -25 27.125 -28 27 C-29 26 -29 26 -29.01953125 23.8203125 C-28.95121094 22.93085937 -28.88289063 22.04140625 -28.8125 21.125 C-28.75707031 20.24070312 -28.70164062 19.35640625 -28.64453125 18.4453125 C-27.82837698 15.34887266 -26.62568 14.71196344 -24 13 C-22.98133771 11.34467377 -21.98189187 9.67739862 -21 8 C-17.8503014 4.06287675 -14.86082458 3.12172875 -10 2 C-10 1.34 -10 0.68 -10 0 C-6.42355152 -1.2380014 -3.66305234 -0.74926071 0 0 Z " fill="#3D0158" transform="translate(36,97)"/>
<path d="M0 0 C1.60332791 -0.08121924 3.20784026 -0.13929134 4.8125 -0.1875 C6.15248047 -0.23970703 6.15248047 -0.23970703 7.51953125 -0.29296875 C10.46633225 0.05507861 11.11816611 0.80452713 13 3 C15.10332891 3.71447643 15.10332891 3.71447643 17 4 C17 4.66 17 5.32 17 6 C19.475 6.495 19.475 6.495 22 7 C22 7.99 22 8.98 22 10 C22.99 10 23.98 10 25 10 C28.41306555 15.32115732 27.11199598 21.95221683 27 28 C19.74 28 12.48 28 5 28 C5 20 5 20 6 18 C6.0952699 16.52331663 6.12985959 15.04224543 6.125 13.5625 C6.12757812 12.78003906 6.13015625 11.99757813 6.1328125 11.19140625 C6.08382548 8.82104653 6.08382548 8.82104653 5 6 C4.34 5.690625 3.68 5.38125 3 5.0625 C2.34 4.711875 1.68 4.36125 1 4 C0.375 1.93359375 0.375 1.93359375 0 0 Z " fill="#450664" transform="translate(101,100)"/>
<path d="M0 0 C0.33 0.66 0.66 1.32 1 2 C1.99 1.67 2.98 1.34 4 1 C4 2.65 4 4.3 4 6 C3.39671875 6.13277344 2.7934375 6.26554687 2.171875 6.40234375 C0.97304687 6.66724609 0.97304687 6.66724609 -0.25 6.9375 C-1.43335938 7.19853516 -1.43335938 7.19853516 -2.640625 7.46484375 C-4.76878703 7.947556 -6.88532842 8.46163178 -9 9 C-8.94779297 10.03060547 -8.94779297 10.03060547 -8.89453125 11.08203125 C-8.86746094 11.98308594 -8.84039062 12.88414063 -8.8125 13.8125 C-8.76029297 15.15248047 -8.76029297 15.15248047 -8.70703125 16.51953125 C-9 19 -9 19 -10.21875 20.8125 C-12.52140108 22.34760072 -13.94466334 22.30675377 -16.6875 22.1875 C-17.49574219 22.16042969 -18.30398437 22.13335937 -19.13671875 22.10546875 C-19.75160156 22.07066406 -20.36648437 22.03585938 -21 22 C-21.37125 20.88625 -21.37125 20.88625 -21.75 19.75 C-22.83463706 16.90228889 -22.83463706 16.90228889 -25.125 15 C-27 13 -27 13 -27.25 10.25 C-27.1675 9.5075 -27.085 8.765 -27 8 C-26.34 8 -25.68 8 -25 8 C-24.67 6.35 -24.34 4.7 -24 3 C-19.71 3 -15.42 3 -11 3 C-10.67 2.34 -10.34 1.68 -10 1 C-6.6322481 0.06451336 -3.4815554 -0.09947301 0 0 Z " fill="#AF33C8" transform="translate(78,25)"/>
<path d="M0 0 C0.99 0.33 1.98 0.66 3 1 C3.144375 2.051875 3.28875 3.10375 3.4375 4.1875 C3.87526966 7.15460549 4.37804866 10.06794366 5 13 C4.01 13.33 3.02 13.66 2 14 C2 13.34 2 12.68 2 12 C0.68 12 -0.64 12 -2 12 C-2.33 13.32 -2.66 14.64 -3 16 C-3.804375 16.144375 -4.60875 16.28875 -5.4375 16.4375 C-7.92103706 16.74135249 -7.92103706 16.74135249 -9 18 C-12.95114545 18.28058489 -16.91507723 18.23181436 -20.875 18.25 C-21.99003906 18.270625 -23.10507812 18.29125 -24.25390625 18.3125 C-25.32253906 18.31765625 -26.39117187 18.3228125 -27.4921875 18.328125 C-28.96727783 18.34214355 -28.96727783 18.34214355 -30.47216797 18.35644531 C-33 18 -33 18 -34.84423828 16.72949219 C-36 15 -36 15 -36 11 C-33.44276771 9.72138385 -31.63262898 9.88663391 -28.7734375 9.90234375 C-27.7421875 9.90556641 -26.7109375 9.90878906 -25.6484375 9.91210938 C-24.02808594 9.92467773 -24.02808594 9.92467773 -22.375 9.9375 C-20.74304688 9.94426758 -20.74304688 9.94426758 -19.078125 9.95117188 C-16.38536211 9.96298224 -13.69270812 9.97945222 -11 10 C-10.34 8.68 -9.68 7.36 -9 6 C-8.34 6 -7.68 6 -7 6 C-6.67 4.68 -6.34 3.36 -6 2 C-4.35 2 -2.7 2 -1 2 C-0.67 1.34 -0.34 0.68 0 0 Z " fill="#B333CB" transform="translate(61,50)"/>
<path d="M0 0 C1.62490954 -0.02698189 3.24994633 -0.04638757 4.875 -0.0625 C5.77992187 -0.07410156 6.68484375 -0.08570312 7.6171875 -0.09765625 C10 0 10 0 12 1 C12 1.66 12 2.32 12 3 C12.9075 2.649375 13.815 2.29875 14.75 1.9375 C17.87758436 1.03531221 19.05208081 0.86618493 22 2 C22 3.32 22 4.64 22 6 C24.31 6 26.62 6 29 6 C29.36300778 12.29213483 29.36300778 12.29213483 27.75 15.4375 C26 17 26 17 22 17 C22 18.32 22 19.64 22 21 C19.03 21 16.06 21 13 21 C11.06604999 17.13209997 10.76710647 15.8499541 10.875 11.75 C10.89304687 10.85796875 10.91109375 9.9659375 10.9296875 9.046875 C10.96449219 8.03367187 10.96449219 8.03367187 11 7 C7.34920174 5.38935371 3.9492568 4.55105909 0 4 C0 2.68 0 1.36 0 0 Z " fill="#AE3EC3" transform="translate(14,25)"/>
<path d="M0 0 C1.32 0 2.64 0 4 0 C4 1.32 4 2.64 4 4 C3.01 4 2.02 4 1 4 C1 5.98 1 7.96 1 10 C2.32 9.67 3.64 9.34 5 9 C5 8.34 5 7.68 5 7 C6.32 7 7.64 7 9 7 C9 7.66 9 8.32 9 9 C13.29 9.33 17.58 9.66 22 10 C22.33 10.99 22.66 11.98 23 13 C20.36 13.33 17.72 13.66 15 14 C15 13.34 15 12.68 15 12 C11.04 11.67 7.08 11.34 3 11 C3 12.32 3 13.64 3 15 C3.886875 14.938125 4.77375 14.87625 5.6875 14.8125 C9.39367909 15.02228372 11.08511695 15.75137594 14 18 C15 21 15 21 14.9375 24.5 C14.6871024 28.11538937 14.6871024 28.11538937 17 31 C19.56282742 31.72965366 19.56282742 31.72965366 22 32 C21.01 32.99 20.02 33.98 19 35 C16.69 34.34 14.38 33.68 12 33 C12 32.01 12 31.02 12 30 C11.01 29.67 10.02 29.34 9 29 C8.95758277 26.66705225 8.95907063 24.33297433 9 22 C9.33 21.67 9.66 21.34 10 21 C6.7 20.67 3.4 20.34 0 20 C0 17.36 0 14.72 0 12 C-0.66 12 -1.32 12 -2 12 C-2.054138 14.24973447 -2.09285491 16.49984383 -2.125 18.75 C-2.14820313 20.00296875 -2.17140625 21.2559375 -2.1953125 22.546875 C-2.01275865 25.77442713 -1.68582101 27.32766152 0 30 C1.4783226 32.95664519 1.06032783 35.74229737 1 39 C0.67 39 0.34 39 0 39 C0 37.35 0 35.7 0 34 C-0.99 33.67 -1.98 33.34 -3 33 C-4.1577506 29.52674819 -4.06866652 26.63932552 -4 23 C-4.99 22.67 -5.98 22.34 -7 22 C-7 20.02 -7 18.04 -7 16 C-6.34 15.67 -5.68 15.34 -5 15 C-4.59270772 12.67843403 -4.25561323 10.3431213 -4 8 C-3.01 8 -2.02 8 -1 8 C-0.67 5.36 -0.34 2.72 0 0 Z " fill="#9226A9" transform="translate(11,14)"/>
<path d="M0 0 C0.66 0 1.32 0 2 0 C2 0.99 2 1.98 2 3 C2.66 3 3.32 3 4 3 C3.95875 4.216875 3.9175 5.43375 3.875 6.6875 C3.86245492 10.21894127 4.40001783 12.80003566 6 16 C6.99 16 7.98 16 9 16 C9.37703638 11.66215772 9.37703638 11.66215772 7.4375 7.9375 C6 6 6 6 6.3125 3.25 C6.539375 2.5075 6.76625 1.765 7 1 C8.32 1.66 9.64 2.32 11 3 C11 4.65 11 6.3 11 8 C11.99 8.33 12.98 8.66 14 9 C14.12375 9.804375 14.2475 10.60875 14.375 11.4375 C14.58125 12.283125 14.7875 13.12875 15 14 C15.66 14.33 16.32 14.66 17 15 C17.28875 15.99 17.5775 16.98 17.875 18 C18.24625 18.99 18.6175 19.98 19 21 C21.03243548 21.96877057 21.03243548 21.96877057 23 22 C23 22.66 23 23.32 23 24 C23.99 24.33 24.98 24.66 26 25 C26.6875 27.0625 26.6875 27.0625 27 29 C24 31 24 31 20.4375 30.75 C17 30 17 30 15 28 C14.360625 27.855625 13.72125 27.71125 13.0625 27.5625 C10.56445745 26.88121567 9.61390123 25.99816343 8 24 C7.67 23.01 7.34 22.02 7 21 C6.01 20.34 5.02 19.68 4 19 C4 18.01 4 17.02 4 16 C3.01 16 2.02 16 1 16 C0.08342019 10.61509359 -0.11138159 5.45769811 0 0 Z " fill="#AE31C7" transform="translate(0,45)"/>
<path d="M0 0 C0.99 0.33 1.98 0.66 3 1 C2 4 2 4 0 5 C-0.66 6.32 -1.32 7.64 -2 9 C-10.25 9 -18.5 9 -27 9 C-27 10.32 -27 11.64 -27 13 C-26.01 13.33 -25.02 13.66 -24 14 C-24 14.66 -24 15.32 -24 16 C-22.824375 15.835 -21.64875 15.67 -20.4375 15.5 C-14.67719205 14.8282708 -8.94485031 15.01539414 -3.16015625 15.16015625 C0.09789434 15.34904587 0.09789434 15.34904587 2 13 C3.32 13 4.64 13 6 13 C6.33 12.01 6.66 11.02 7 10 C8.32 10 9.64 10 11 10 C10.67 11.98 10.34 13.96 10 16 C9.34 16.12375 8.68 16.2475 8 16.375 C4.30301417 17.14520538 0.65994058 18.06950663 -3 19 C-3 19.33 -3 19.66 -3 20 C-5.375 20.125 -5.375 20.125 -8 20 C-8.66 19.34 -9.32 18.68 -10 18 C-12.89223503 17.53603307 -12.89223503 17.53603307 -16.125 17.375 C-17.22070312 17.30023438 -18.31640625 17.22546875 -19.4453125 17.1484375 C-20.28835937 17.09945312 -21.13140625 17.05046875 -22 17 C-22 17.66 -22 18.32 -22 19 C-21.01 19.33 -20.02 19.66 -19 20 C-20.65 20 -22.3 20 -24 20 C-24.33 19.01 -24.66 18.02 -25 17 C-25.9075 16.9175 -26.815 16.835 -27.75 16.75 C-31.45284895 15.8954964 -32.75365406 15.02392723 -35 12 C-35 10.68 -35 9.36 -35 8 C-35.99 7.67 -36.98 7.34 -38 7 C-38.33 5.02 -38.66 3.04 -39 1 C-38.34 1 -37.68 1 -37 1 C-36.67 2.65 -36.34 4.3 -36 6 C-35.34 6 -34.68 6 -34 6 C-34 7.32 -34 8.64 -34 10 C-33.01 10 -32.02 10 -31 10 C-31 10.99 -31 11.98 -31 13 C-30.34 12.67 -29.68 12.34 -29 12 C-28.62599214 9.67284 -28.29235267 7.33882138 -28 5 C-26.22509454 3.22509454 -23.62215098 3.76500027 -21.21484375 3.68359375 C-19.46010742 3.62075195 -19.46010742 3.62075195 -17.66992188 3.55664062 C-16.43822266 3.51732422 -15.20652344 3.47800781 -13.9375 3.4375 C-12.08415039 3.37272461 -12.08415039 3.37272461 -10.19335938 3.30664062 C-7.12902665 3.20015802 -4.06460927 3.09814576 -1 3 C-0.67 2.01 -0.34 1.02 0 0 Z " fill="#A12DB9" transform="translate(52,52)"/>
<path d="M0 0 C0.99 0 1.98 0 3 0 C3.96799592 4.84332905 4.13122086 9.54138016 4.09765625 14.4609375 C4.0962413 15.25150543 4.09482635 16.04207336 4.09336853 16.8565979 C4.08780504 19.36277166 4.07525944 21.86885358 4.0625 24.375 C4.05748028 26.08202995 4.0529182 27.78906132 4.04882812 29.49609375 C4.03784759 33.66409748 4.02060839 37.83203321 4 42 C3.360625 42.12375 2.72125 42.2475 2.0625 42.375 C1.381875 42.58125 0.70125 42.7875 0 43 C-0.33 43.66 -0.66 44.32 -1 45 C-1.87974827 42.36075519 -2.16621103 40.6238108 -2.28125 37.90234375 C-2.31822998 37.10530029 -2.35520996 36.30825684 -2.39331055 35.48706055 C-2.42851807 34.64570557 -2.46372559 33.80435059 -2.5 32.9375 C-2.736696 27.6562516 -3.00356172 22.4337089 -3.6875 17.1875 C-4.12480139 13.3123369 -3.52297981 10.63822955 -2 7 C-1.65939189 5.33480481 -1.32441604 3.66842534 -1 2 C-0.67 1.34 -0.34 0.68 0 0 Z " fill="#9332A7" transform="translate(94,51)"/>
<path d="M0 0 C1.65 0 3.3 0 5 0 C5.33 0.99 5.66 1.98 6 3 C13.92 2.67 21.84 2.34 30 2 C30.33 3.65 30.66 5.3 31 7 C30.360625 7.12375 29.72125 7.2475 29.0625 7.375 C28.381875 7.58125 27.70125 7.7875 27 8 C26.67 8.66 26.34 9.32 26 10 C26 9.34 26 8.68 26 8 C25.01 8 24.02 8 23 8 C22.34 9.32 21.68 10.64 21 12 C14.73 12 8.46 12 2 12 C0.12595954 7.31489886 -0.19157797 4.88523811 0 0 Z " fill="#B23EC8" transform="translate(29,73)"/>
<path d="M0 0 C0.66 0 1.32 0 2 0 C2.87043404 3.00506992 3.13484254 5.68749206 3.125 8.8125 C3.12371094 9.6890625 3.12242188 10.565625 3.12109375 11.46875 C3 14 3 14 2.1875 17.8125 C1.61819805 21.18650154 1.61819805 21.18650154 4.3125 23.6875 C5.199375 24.450625 6.08625 25.21375 7 26 C7.66 27.32 8.32 28.64 9 30 C15.27 30.33 21.54 30.66 28 31 C28.495 32.98 28.495 32.98 29 35 C21.41 35 13.82 35 6 35 C5.67 33.68 5.34 32.36 5 31 C3.83404344 29.05591393 3.83404344 29.05591393 2.4375 27.25 C1.98246094 26.63640625 1.52742188 26.0228125 1.05859375 25.390625 C0.70925781 24.93171875 0.35992187 24.4728125 0 24 C-1.98 24.33 -3.96 24.66 -6 25 C-6 24.34 -6 23.68 -6 23 C-5.34 23 -4.68 23 -4 23 C-3.95101562 22.154375 -3.90203125 21.30875 -3.8515625 20.4375 C-2.88481675 5.76963351 -2.88481675 5.76963351 0 0 Z " fill="#9523A5" transform="translate(74,93)"/>
<path d="M0 0 C19.14 0 38.28 0 58 0 C58 0.66 58 1.32 58 2 C60.475 2.99 60.475 2.99 63 4 C62.67 4.66 62.34 5.32 62 6 C61.278125 5.525625 60.55625 5.05125 59.8125 4.5625 C55.44050177 2.13361209 52.25259771 1.72348367 47.44140625 2.93359375 C38.70265275 4.68017127 29.80600627 4.17318465 20.9375 4.0625 C18.25013497 4.03484479 15.56282284 4.01019315 12.87538147 3.99131775 C11.21374086 3.97908811 9.55212906 3.96151136 7.89060974 3.93800354 C3.81490296 3.79647947 3.81490296 3.79647947 0 5 C0 3.35 0 1.7 0 0 Z " fill="#BE3AD9" transform="translate(16,0)"/>
<path d="M0 0 C1.65 0 3.3 0 5 0 C5.268125 0.639375 5.53625 1.27875 5.8125 1.9375 C6.88667752 4.33131686 6.88667752 4.33131686 10 5 C9.34 5 8.68 5 8 5 C7.34 7.97 6.68 10.94 6 14 C10.13724647 16.43849409 10.13724647 16.43849409 14.8125 16.8125 C17.17542751 16.21809907 17.17542751 16.21809907 18 14 C19.32 14 20.64 14 22 14 C22 16.31 22 18.62 22 21 C14.74 21 7.48 21 0 21 C0 13 0 13 1 11 C1.09499503 9.50243129 1.12987198 8.00057068 1.125 6.5 C1.12757812 5.7059375 1.13015625 4.911875 1.1328125 4.09375 C1.13277996 1.94081466 1.13277996 1.94081466 0 0 Z " fill="#4A056B" transform="translate(106,107)"/>
<path d="M0 0 C1.98 0.99 1.98 0.99 4 2 C4 2.99 4 3.98 4 5 C4.99 5 5.98 5 7 5 C7.33 6.98 7.66 8.96 8 11 C8.99 11 9.98 11 11 11 C11 12.98 11 14.96 11 17 C11.99 17 12.98 17 14 17 C14 21.29 14 25.58 14 30 C14.99 30 15.98 30 17 30 C17.33 30.99 17.66 31.98 18 33 C18.66 33.33 19.32 33.66 20 34 C20 40.6 20 47.2 20 54 C18.515 54.495 18.515 54.495 17 55 C16.66513565 51.54181311 16.33236837 48.08342761 16 44.625 C15.90460938 43.64015625 15.80921875 42.6553125 15.7109375 41.640625 C15.62070313 40.69960938 15.53046875 39.75859375 15.4375 38.7890625 C15.35371094 37.91975098 15.26992187 37.05043945 15.18359375 36.15478516 C15 34 15 34 15 32 C14.34 32 13.68 32 13 32 C13 29.69 13 27.38 13 25 C12.01 25 11.02 25 10 25 C10 21.04 10 17.08 10 13 C8.68 12.34 7.36 11.68 6 11 C6 10.01 6 9.02 6 8 C5.38125 7.71125 4.7625 7.4225 4.125 7.125 C2 6 2 6 0 4 C0 2.68 0 1.36 0 0 Z " fill="#851E9B" transform="translate(81,0)"/>
<path d="M0 0 C0.99 0.33 1.98 0.66 3 1 C3.70491267 3.32206525 4.37212429 5.65593068 5 8 C5.66 8.33 6.32 8.66 7 9 C7.9317893 12.92161758 8.26848567 16.81866304 7.375 20.75 C6.72451923 23.15330593 6.72451923 23.15330593 8.5 25.5 C10 28 10 28 9.6875 30.8125 C9.460625 31.534375 9.23375 32.25625 9 33 C8.01 33 7.02 33 6 33 C3.09970628 29.34777828 2.59133901 26.59743616 3 22 C3.33 21.34 3.66 20.68 4 20 C3.34 20 2.68 20 2 20 C2 19.01 2 18.02 2 17 C1.34 17 0.68 17 0 17 C0 11.39 0 5.78 0 0 Z " fill="#BA3AD4" transform="translate(0,28)"/>
<path d="M0 0 C0.99 0.33 1.98 0.66 3 1 C3.5249972 6.98496813 3.01683892 9.68895053 -0.765625 14.33203125 C-2.4941682 16.6677526 -3.1073125 19.2581741 -4 22 C-4.99 22.66 -5.98 23.32 -7 24 C-8.19232613 26.05003955 -8.19232613 26.05003955 -9 28 C-9.66 27.67 -10.32 27.34 -11 27 C-11 26.34 -11 25.68 -11 25 C-12.32 24.34 -13.64 23.68 -15 23 C-14.01 21.515 -14.01 21.515 -13 20 C-9.375 19.3125 -9.375 19.3125 -6 19 C-6.33 17.68 -6.66 16.36 -7 15 C-8.32 15 -9.64 15 -11 15 C-10.67 14.01 -10.34 13.02 -10 12 C-8.68 12 -7.36 12 -6 12 C-6 10.68 -6 9.36 -6 8 C-5.34 7.67 -4.68 7.34 -4 7 C-2.53589034 4.71598892 -1.21303722 2.42607444 0 0 Z " fill="#9128A6" transform="translate(65,61)"/>
<path d="M0 0 C0.33 0.66 0.66 1.32 1 2 C0.34 2 -0.32 2 -1 2 C-0.80470703 2.90492187 -0.80470703 2.90492187 -0.60546875 3.828125 C-0.18128951 6.28598599 0.10304042 8.50556307 0 11 C-2.1875 13.5625 -2.1875 13.5625 -5 15 C-6.32 15 -7.64 15 -9 15 C-9.268125 14.0925 -9.53625 13.185 -9.8125 12.25 C-10.80578078 9.02412151 -10.80578078 9.02412151 -12.6875 6.8125 C-13.120625 6.214375 -13.55375 5.61625 -14 5 C-13 2 -13 2 -10.9375 0.8125 C-7.14524878 -0.23642055 -3.92937998 -0.13319932 0 0 Z " fill="#C23ADC" transform="translate(68,30)"/>
<path d="M0 0 C0.99 0.33 1.98 0.66 3 1 C2 4 2 4 0 5 C-0.66 6.32 -1.32 7.64 -2 9 C-10.25 9 -18.5 9 -27 9 C-27.33 10.32 -27.66 11.64 -28 13 C-29.16552619 8.80410573 -29.08954032 8.17908064 -27 4 C-18.42 3.67 -9.84 3.34 -1 3 C-0.67 2.01 -0.34 1.02 0 0 Z " fill="#811E96" transform="translate(52,52)"/>
<path d="M0 0 C0.66 0 1.32 0 2 0 C2 0.66 2 1.32 2 2 C9.92 2 17.84 2 26 2 C26 2.66 26 3.32 26 4 C27.98 4.33 29.96 4.66 32 5 C32 5.33 32 5.66 32 6 C20.12 6 8.24 6 -4 6 C-4.66 7.65 -5.32 9.3 -6 11 C-6.66 11 -7.32 11 -8 11 C-8 10.01 -8 9.02 -8 8 C-7.34 8 -6.68 8 -6 8 C-5.87625 7.38125 -5.7525 6.7625 -5.625 6.125 C-5 4 -5 4 -3 2 C-2.01 2 -1.02 2 0 2 C0 1.34 0 0.68 0 0 Z " fill="#8B2DA0" transform="translate(23,3)"/>
<path d="M0 0 C1.875 2.125 1.875 2.125 1.875 4.125 C3.855 4.125 5.835 4.125 7.875 4.125 C9.03441038 7.60323115 8.58320884 9.58395578 7.875 13.125 C8.865 12.795 9.855 12.465 10.875 12.125 C10.875 13.115 10.875 14.105 10.875 15.125 C9.555 15.125 8.235 15.125 6.875 15.125 C6.875 14.135 6.875 13.145 6.875 12.125 C5.555 12.125 4.235 12.125 2.875 12.125 C2.771875 11.526875 2.66875 10.92875 2.5625 10.3125 C1.78114947 7.82638466 0.72604584 6.89556558 -1.125 5.125 C-1.125 4.465 -1.125 3.805 -1.125 3.125 C-2.00542969 3.13660156 -2.88585937 3.14820313 -3.79296875 3.16015625 C-5.53513672 3.17369141 -5.53513672 3.17369141 -7.3125 3.1875 C-8.46105469 3.19910156 -9.60960938 3.21070313 -10.79296875 3.22265625 C-13.71800586 3.13692832 -16.28816291 2.80349023 -19.125 2.125 C-18.465 1.795 -17.805 1.465 -17.125 1.125 C-17.125 0.465 -17.125 -0.195 -17.125 -0.875 C-11.28741934 -2.5332504 -5.30761602 -3.18456961 0 0 Z " fill="#902EA5" transform="translate(75.125,5.875)"/>
<path d="M0 0 C0.66 0.33 1.32 0.66 2 1 C1.56611018 5.91741794 -0.5589194 8.5589194 -4 12 C-6.5625 12.625 -6.5625 12.625 -9 13 C-10.35368596 14.31266518 -11.68799596 15.64567325 -13 17 C-15.25 17.75 -15.25 17.75 -17 18 C-16.8125 15.625 -16.8125 15.625 -16 13 C-14.33333333 12.33333333 -12.66666667 11.66666667 -11 11 C-10.25475806 8.52391899 -10.25475806 8.52391899 -10 6 C-9.34 5.34 -8.68 4.68 -8 4 C-7.505 3.46375 -7.01 2.9275 -6.5 2.375 C-5 1 -5 1 -3 1 C-3 1.66 -3 2.32 -3 3 C-2.34 3 -1.68 3 -1 3 C-0.67 2.01 -0.34 1.02 0 0 Z " fill="#852599" transform="translate(57,85)"/>
<path d="M0 0 C0.845625 0.12375 1.69125 0.2475 2.5625 0.375 C1.20002559 4.96146909 -0.67301436 6.67022007 -4.6875 9.1875 C-6.08742188 10.09435547 -6.08742188 10.09435547 -7.515625 11.01953125 C-10.75021082 12.52006772 -12.91499391 12.6407512 -16.4375 12.375 C-16.4375 11.715 -16.4375 11.055 -16.4375 10.375 C-17.200625 10.375 -17.96375 10.375 -18.75 10.375 C-20.64583333 10.375 -22.54166667 10.375 -24.4375 10.375 C-23.7775 9.385 -23.1175 8.395 -22.4375 7.375 C-19.86328125 7.07421875 -19.86328125 7.07421875 -16.75 7.0625 C-11.14092125 6.76763803 -8.81657427 5.63303346 -4.97265625 1.67578125 C-3.4375 0.375 -3.4375 0.375 0 0 Z " fill="#BF3BD7" transform="translate(60.4375,54.625)"/>
<path d="M0 0 C5.625 -0.25 5.625 -0.25 9 2 C9.1875 4.625 9.1875 4.625 9 7 C10.32 7.33 11.64 7.66 13 8 C9.80009492 10.74277578 6.99500618 12.6302836 3 14 C2.67 13.01 2.34 12.02 2 11 C1.01 10.67 0.02 10.34 -1 10 C-0.67 6.7 -0.34 3.4 0 0 Z " fill="#BE38DC" transform="translate(27,30)"/>
<path d="M0 0 C2.92879371 0.62759865 5.36095629 1.58622659 8 3 C8 3.99 8 4.98 8 6 C9.98 5.01 11.96 4.02 14 3 C13.8125 4.875 13.8125 4.875 13 7 C10.4375 8.25 10.4375 8.25 8 9 C8.33 9.99 8.66 10.98 9 12 C9.78375 12.144375 10.5675 12.28875 11.375 12.4375 C14 13 14 13 16 14 C16 14.66 16 15.32 16 16 C14.68 16 13.36 16 12 16 C12 15.34 12 14.68 12 14 C10.68 14 9.36 14 8 14 C8 14.66 8 15.32 8 16 C7.01 16.33 6.02 16.66 5 17 C3.97895449 17.97850195 2.9793879 18.97980427 2 20 C1.01 20.66 0.02 21.32 -1 22 C-1 22.33 -1 22.66 -1 23 C-3.64 23 -6.28 23 -9 23 C-8.67 22.34 -8.34 21.68 -8 21 C-6.1875 20.4375 -6.1875 20.4375 -4 20 C-3.2575 19.814375 -2.515 19.62875 -1.75 19.4375 C-1.1725 19.293125 -0.595 19.14875 0 19 C0 17.68 0 16.36 0 15 C0.78375 14.855625 1.5675 14.71125 2.375 14.5625 C5.15156763 13.28463143 5.15156763 13.28463143 5.77734375 10.86328125 C6.26835609 8.58025309 6.68112401 6.31304073 7 4 C4.69 4 2.38 4 0 4 C0 2.68 0 1.36 0 0 Z " fill="#601175" transform="translate(36,27)"/>
<path d="M0 0 C0.33 0.99 0.66 1.98 1 3 C-1.85211349 6.01056424 -4.2436708 8.25599001 -8 10 C-8.33 10.66 -8.66 11.32 -9 12 C-9.99 12.33 -10.98 12.66 -12 13 C-12.12117187 13.85464844 -12.24234375 14.70929687 -12.3671875 15.58984375 C-12.53476563 16.69457031 -12.70234375 17.79929687 -12.875 18.9375 C-13.03742187 20.03964844 -13.19984375 21.14179688 -13.3671875 22.27734375 C-13.68042969 23.62505859 -13.68042969 23.62505859 -14 25 C-14.66 25.33 -15.32 25.66 -16 26 C-16.09038099 20.84828377 -15.84681133 16.08086796 -15 11 C-14.01 11 -13.02 11 -12 11 C-11.95875 10.113125 -11.9175 9.22625 -11.875 8.3125 C-10.33667856 2.48885455 -6.09072654 -0.89569508 0 0 Z " fill="#B232CC" transform="translate(16,0)"/>
<path d="M0 0 C1.98 0.66 3.96 1.32 6 2 C5.67 3.32 5.34 4.64 5 6 C6.98 6.66 8.96 7.32 11 8 C9.515 10.475 9.515 10.475 8 13 C3.44262737 12.56179109 0.42346555 12.14958831 -3 9 C-2.5020163 5.26512223 -2.12508244 3.18762365 0 0 Z " fill="#420159" transform="translate(114,112)"/>
<path d="M0 0 C3.2626876 3.08632611 6.02235218 5.93483504 8 10 C7.67 10.66 7.34 11.32 7 12 C5.35 12 3.7 12 2 12 C2 10.68 2 9.36 2 8 C-4.30505667 7.66368543 -4.30505667 7.66368543 -10 10 C-10.99 10.33 -11.98 10.66 -13 11 C-12.67 9.68 -12.34 8.36 -12 7 C-10.68 7 -9.36 7 -8 7 C-7.79375 6.21625 -7.5875 5.4325 -7.375 4.625 C-6 2 -6 2 -2.875 0.6875 C-1.451875 0.3471875 -1.451875 0.3471875 0 0 Z " fill="#8B21A0" transform="translate(73,116)"/>
<path d="M0 0 C0.99 0 1.98 0 3 0 C5.13586678 3.20380017 5.23132175 4.01939967 5.125 7.6875 C5.10695313 8.49574219 5.08890625 9.30398437 5.0703125 10.13671875 C5.04710938 10.75160156 5.02390625 11.36648437 5 12 C4.67 12 4.34 12 4 12 C3.67 9.03 3.34 6.06 3 3 C2.34 3 1.68 3 1 3 C0.84180786 3.93851807 0.84180786 3.93851807 0.68041992 4.89599609 C0.19598887 7.72477903 -0.30798795 10.54973254 -0.8125 13.375 C-0.97814453 14.35984375 -1.14378906 15.3446875 -1.31445312 16.359375 C-1.5706543 17.77089844 -1.5706543 17.77089844 -1.83203125 19.2109375 C-1.98389893 20.08024902 -2.1357666 20.94956055 -2.29223633 21.84521484 C-3 24 -3 24 -6 26 C-8.32387947 26.39387788 -10.65793749 26.73486085 -13 27 C-12.505 25.515 -12.505 25.515 -12 24 C-9.69 24 -7.38 24 -5 24 C-4.41639845 17.65333314 -3.85508518 11.37625222 -4 5 C-2.68 4.67 -1.36 4.34 0 4 C0 2.68 0 1.36 0 0 Z M-15 27 C-14.34 27.33 -13.68 27.66 -13 28 C-13.99 28.99 -14.98 29.98 -16 31 C-16.66 30.67 -17.32 30.34 -18 30 C-17.01 29.01 -16.02 28.02 -15 27 Z " fill="#881E9C" transform="translate(73,90)"/>
<path d="M0 0 C1 3 1 3 0.375 5.5 C-0.27083189 7.99911666 -0.27083189 7.99911666 1.125 9.875 C3.0126006 11.25163026 3.0126006 11.25163026 5.625 10.8125 C8.16552003 10.25355766 8.16552003 10.25355766 9 8 C9.99 7.34 10.98 6.68 12 6 C11.01 5.67 10.02 5.34 9 5 C9.33 3.68 9.66 2.36 10 1 C12.475 1.99 12.475 1.99 15 3 C15.125 5.375 15.125 5.375 15 8 C14.34 8.66 13.68 9.32 13 10 C11.68 10 10.36 10 9 10 C9 11.32 9 12.64 9 14 C6.03 14 3.06 14 0 14 C-2.12893285 9.74213431 -2.33899053 7.66111976 -2 3 C-1.34 2.01 -0.68 1.02 0 0 Z " fill="#B234CC" transform="translate(27,32)"/>
<path d="M0 0 C0.9765625 6.0546875 0.9765625 6.0546875 1 8 C0.34 8.66 -0.32 9.32 -1 10 C-1.39764263 11.98821313 -1.73775349 13.98944339 -2 16 C-2.66 14.68 -3.32 13.36 -4 12 C-4.33 12.99 -4.66 13.98 -5 15 C-5.99 15.33 -6.98 15.66 -8 16 C-8.66 13.69 -9.32 11.38 -10 9 C-9.01 8.67 -8.02 8.34 -7 8 C-6.67 7.01 -6.34 6.02 -6 5 C-5.34 5 -4.68 5 -4 5 C-3.814375 4.0409375 -3.814375 4.0409375 -3.625 3.0625 C-3.41875 2.381875 -3.2125 1.70125 -3 1 C-1 0 -1 0 0 0 Z " fill="#9225A7" transform="translate(73,42)"/>
<path d="M0 0 C0.93188453 3.02012211 0.96723045 5.14968286 0.4375 8.25 C-0.16604456 13.05453237 0.32126098 16.44342265 2 21 C3.97034802 22.5748108 3.97034802 22.5748108 6 23 C6 24.65 6 26.3 6 28 C4.125 27.8125 4.125 27.8125 2 27 C0.9375 24.875 0.9375 24.875 0 22 C-0.804375 20.4840625 -0.804375 20.4840625 -1.625 18.9375 C-3.77406449 13.97052953 -3.7891787 8.29213952 -3 3 C-1.4765625 1.140625 -1.4765625 1.140625 0 0 Z " fill="#67157F" transform="translate(38,100)"/>
<path d="M0 0 C2 1 2 1 3.125 4.0625 C3.41375 5.031875 3.7025 6.00125 4 7 C2.625 8.5 2.625 8.5 1 10 C0.34 10 -0.32 10 -1 10 C-1.1546875 10.8971875 -1.1546875 10.8971875 -1.3125 11.8125 C-2.33763218 15.0742842 -4.02687392 16.43495905 -6.9375 18.125 C-8.9917089 18.99648256 -10.78443896 19.70459186 -13 20 C-13.66 19.34 -14.32 18.68 -15 18 C-15 16 -15 16 -13 14 C-9.9375 13.875 -9.9375 13.875 -7 14 C-5.81025622 14.10187911 -5.81025622 14.10187911 -4.47265625 12.8203125 C-2.55809577 10.45377355 -2.57357958 8.88630945 -2.4375 5.875 C-2.30859375 3.1796875 -2.30859375 3.1796875 -2 1 C-1.34 0.67 -0.68 0.34 0 0 Z " fill="#9025A5" transform="translate(71,33)"/>
<path d="M0 0 C1.65 0 3.3 0 5 0 C5 2 5 2 2.625 4.5 C1.75875 5.325 0.8925 6.15 0 7 C-2.65210177 9.65210177 -2.29859444 10.99325599 -2.3125 14.6875 C-2.23002638 19.99118806 -1.46684478 23.35094637 1 28 C3 32.84210526 3 32.84210526 3 34 C0.36 34 -2.28 34 -5 34 C-5 33.01 -5 32.02 -5 31 C-4.01 30.67 -3.02 30.34 -2 30 C-2.33 28.96875 -2.66 27.9375 -3 26.875 C-4.52544941 20.76222791 -4.73769412 14.24263735 -4 8 C-2.5234375 6.25 -2.5234375 6.25 -1 5 C-0.27802838 2.39388923 -0.27802838 2.39388923 0 0 Z " fill="#550770" transform="translate(38,94)"/>
<path d="M0 0 C0.33 0 0.66 0 1 0 C1 10.89 1 21.78 1 33 C3.51083114 31.74458443 3.87125446 30.49936512 5 28 C5 29.98 5 31.96 5 34 C4.360625 34.12375 3.72125 34.2475 3.0625 34.375 C2.381875 34.58125 1.70125 34.7875 1 35 C0.67 35.66 0.34 36.32 0 37 C-0.87974827 34.36075519 -1.16621103 32.6238108 -1.28125 29.90234375 C-1.33684082 28.70665771 -1.33684082 28.70665771 -1.39355469 27.48681641 C-1.42868164 26.64554199 -1.46380859 25.80426758 -1.5 24.9375 C-1.7337609 19.6259328 -2.01419589 14.39559683 -2.75 9.125 C-3.12713409 5.8565046 -3.0214026 5.04864228 -1.625 1.875 C-1.08875 1.25625 -0.5525 0.6375 0 0 Z " fill="#8E27A3" transform="translate(93,59)"/>
<path d="M0 0 C0.66 0.33 1.32 0.66 2 1 C0.68 3.31 -0.64 5.62 -2 8 C-2.66 8 -3.32 8 -4 8 C-4 9.98 -4 11.96 -4 14 C-4.99 14 -5.98 14 -7 14 C-7.33 15.65 -7.66 17.3 -8 19 C-8.66 19 -9.32 19 -10 19 C-11.11658501 14.31034294 -10.80619523 11.46236469 -9 7 C-8.34 7 -7.68 7 -7 7 C-6.67 6.01 -6.34 5.02 -6 4 C-4.0625 2.9375 -4.0625 2.9375 -2 2 C-1.34 1.34 -0.68 0.68 0 0 Z " fill="#BD3ADC" transform="translate(14,5)"/>
<path d="M0 0 C11.22 0 22.44 0 34 0 C34 0.33 34 0.66 34 1 C22.92803142 2.53472832 12.17661864 3.270766 1 3 C0.67 2.01 0.34 1.02 0 0 Z " fill="#C43CE8" transform="translate(26,0)"/>
<path d="M0 0 C0.66 0 1.32 0 2 0 C2 0.99 2 1.98 2 3 C2.66 3 3.32 3 4 3 C3.896875 4.134375 3.79375 5.26875 3.6875 6.4375 C3.67789676 11.87293174 6.17505403 15.51849931 9 20 C9.7770851 21.35058881 10.54858058 22.70442102 11.3125 24.0625 C11.869375 25.031875 12.42625 26.00125 13 27 C11 27 11 27 9.4375 25.6875 C8 24 8 24 7 21 C6.01 20.34 5.02 19.68 4 19 C4 18.01 4 17.02 4 16 C3.01 16 2.02 16 1 16 C0.08342019 10.61509359 -0.11138159 5.45769811 0 0 Z " fill="#9728AE" transform="translate(0,45)"/>
<path d="M0 0 C0.03738281 0.77085938 0.07476562 1.54171875 0.11328125 2.3359375 C0.21189453 3.84027344 0.21189453 3.84027344 0.3125 5.375 C0.39951172 6.87160156 0.39951172 6.87160156 0.48828125 8.3984375 C0.65714844 9.25695313 0.82601562 10.11546875 1 11 C1.99 11.66 2.98 12.32 4 13 C4.40843923 15.71203652 4.13336867 18.2437142 4 21 C3.67 21 3.34 21 3 21 C2.67 19.35 2.34 17.7 2 16 C-1.0109362 18.0072908 -1.63016497 18.83884224 -3 22 C-3.33 21.01 -3.66 20.02 -4 19 C-3.67 18.34 -3.34 17.68 -3 17 C-2.76827173 14.45384991 -2.58105471 11.92603775 -2.4375 9.375 C-2.37272461 8.31539062 -2.37272461 8.31539062 -2.30664062 7.234375 C-2.20055249 5.48981463 -2.09977111 3.74493303 -2 2 C-4.86724686 2.57344937 -5.8614515 2.8614515 -8 5 C-7.625 2.5625 -7.625 2.5625 -7 0 C-4.3333581 -1.33332095 -2.83319697 -0.67102033 0 0 Z " fill="#9024A5" transform="translate(94,36)"/>
<path d="M0 0 C0.91974609 -0.01224609 1.83949219 -0.02449219 2.78710938 -0.03710938 C3.67076172 -0.03904297 4.55441406 -0.04097656 5.46484375 -0.04296875 C6.27429443 -0.04707764 7.08374512 -0.05118652 7.91772461 -0.05541992 C10.0625 0.1875 10.0625 0.1875 13.0625 2.1875 C2.6675 2.6825 2.6675 2.6825 -7.9375 3.1875 C-6.9475 3.8475 -5.9575 4.5075 -4.9375 5.1875 C-3.9475 5.8475 -2.9575 6.5075 -1.9375 7.1875 C-8.38557122 8.52577893 -8.38557122 8.52577893 -10.875 7 C-11.9375 5.1875 -11.9375 5.1875 -11.9375 1.1875 C-8.29852049 -0.63198976 -4.00590712 0.00279547 0 0 Z " fill="#B135C8" transform="translate(36.9375,59.8125)"/>
<path d="M0 0 C2.375 -0.1875 2.375 -0.1875 5 0 C5.66 0.99 6.32 1.98 7 3 C6.01 3.495 6.01 3.495 5 4 C4.41282131 6.9051338 4.41282131 6.9051338 4.1875 10.3125 C4.07792969 11.46363281 3.96835938 12.61476563 3.85546875 13.80078125 C4.01382138 17.30593807 4.61722555 18.50639883 7 21 C4.69 21 2.38 21 0 21 C-0.125 13.25 -0.125 13.25 1 11 C1.09499503 9.50243129 1.12987198 8.00057068 1.125 6.5 C1.12757812 5.7059375 1.13015625 4.911875 1.1328125 4.09375 C1.13277996 1.94081466 1.13277996 1.94081466 0 0 Z " fill="#5A0C78" transform="translate(106,107)"/>
<path d="M0 0 C-0.33 0.99 -0.66 1.98 -1 3 C-2.32 3 -3.64 3 -5 3 C-5.33 3.66 -5.66 4.32 -6 5 C-12.6 5.33 -19.2 5.66 -26 6 C-26.33 5.01 -26.66 4.02 -27 3 C-26.67 2.34 -26.34 1.68 -26 1 C-23.36 1 -20.72 1 -18 1 C-18 1.66 -18 2.32 -18 3 C-15.03 3 -12.06 3 -9 3 C-9 2.34 -9 1.68 -9 1 C-2.25 0 -2.25 0 0 0 Z " fill="#88219E" transform="translate(60,71)"/>
<path d="M0 0 C0.66 0 1.32 0 2 0 C2.33 1.65 2.66 3.3 3 5 C3.66 5 4.32 5 5 5 C5 6.32 5 7.64 5 9 C5.99 9 6.98 9 8 9 C8 9.99 8 10.98 8 12 C9.98 12 11.96 12 14 12 C14.33 12.99 14.66 13.98 15 15 C16.65 15 18.3 15 20 15 C19.01 15.33 18.02 15.66 17 16 C17 16.66 17 17.32 17 18 C17.99 18.33 18.98 18.66 20 19 C18.35 19 16.7 19 15 19 C14.67 18.01 14.34 17.02 14 16 C13.0925 15.9175 12.185 15.835 11.25 15.75 C7.54715105 14.8954964 6.24634594 14.02392723 4 11 C4 9.68 4 8.36 4 7 C3.01 6.67 2.02 6.34 1 6 C0.67 4.02 0.34 2.04 0 0 Z " fill="#801E96" transform="translate(13,53)"/>
<path d="M0 0 C0.33 0 0.66 0 1 0 C1.04898437 1.25296875 1.09796875 2.5059375 1.1484375 3.796875 C1.22348583 5.44793821 1.29903277 7.09897881 1.375 8.75 C1.4059375 9.575 1.436875 10.4 1.46875 11.25 C1.50742188 12.04921875 1.54609375 12.8484375 1.5859375 13.671875 C1.6173584 14.4050293 1.6487793 15.13818359 1.68115234 15.89355469 C2.04041844 18.26702165 2.83391546 19.91390057 4 22 C5.4783226 24.95664519 5.06032783 27.74229737 5 31 C4.67 31 4.34 31 4 31 C4 29.35 4 27.7 4 26 C3.01 25.67 2.02 25.34 1 25 C-0.1577506 21.52674819 -0.06866652 18.63932552 0 15 C-0.99 14.67 -1.98 14.34 -3 14 C-3 12.02 -3 10.04 -3 8 C-2.34 7.67 -1.68 7.34 -1 7 C-0.59270772 4.67843403 -0.25561323 2.3431213 0 0 Z " fill="#A22CBA" transform="translate(7,22)"/>
<path d="M0 0 C0.928125 0.5259375 0.928125 0.5259375 1.875 1.0625 C2.57625 1.371875 3.2775 1.68125 4 2 C4.66 1.67 5.32 1.34 6 1 C5.690625 1.845625 5.38125 2.69125 5.0625 3.5625 C3.87418144 7.00342094 3.87418144 7.00342094 3.625 10.75 C3.41875 11.8225 3.2125 12.895 3 14 C0.9609375 15.203125 0.9609375 15.203125 -1 16 C-1.02685095 13.52076199 -1.04676547 11.0418116 -1.0625 8.5625 C-1.07506836 7.50192383 -1.07506836 7.50192383 -1.08789062 6.41992188 C-1.09653588 4.61306441 -1.05220011 2.80612397 -1 1 C-0.67 0.67 -0.34 0.34 0 0 Z " fill="#8B2A9E" transform="translate(78,63)"/>
<path d="M0 0 C2.97550031 3.0684847 3.96474513 4.46236331 4.25 8.8125 C4.1675 9.864375 4.085 10.91625 4 12 C3.34 12 2.68 12 2 12 C1.67 11.01 1.34 10.02 1 9 C1.66 9 2.32 9 3 9 C3 8.34 3 7.68 3 7 C-0.0745356 7.7763932 -0.0745356 7.7763932 -2 10 C-2.99 9.34 -3.98 8.68 -5 8 C-7.04584079 7.33841957 -7.04584079 7.33841957 -9.1875 6.875 C-10.445625 6.58625 -11.70375 6.2975 -13 6 C-11.68 5.67 -10.36 5.34 -9 5 C-9 4.34 -9 3.68 -9 3 C-7.35 3 -5.7 3 -4 3 C-4 3.66 -4 4.32 -4 5 C-2.68 5.33 -1.36 5.66 0 6 C-0.2784375 4.7934375 -0.2784375 4.7934375 -0.5625 3.5625 C-0.706875 2.716875 -0.85125 1.87125 -1 1 C-0.67 0.67 -0.34 0.34 0 0 Z " fill="#731787" transform="translate(81,18)"/>
<path d="M0 0 C0.33 0.66 0.66 1.32 1 2 C2.98 2 4.96 2 7 2 C8.15941038 5.47823115 7.70820884 7.45895578 7 11 C7.99 10.67 8.98 10.34 10 10 C10 10.99 10 11.98 10 13 C8.68 13 7.36 13 6 13 C6 12.01 6 11.02 6 10 C4.68 10 3.36 10 2 10 C1.87625 9.360625 1.7525 8.72125 1.625 8.0625 C1.315625 7.0415625 1.315625 7.0415625 1 6 C0.34 5.67 -0.32 5.34 -1 5 C-0.67 3.35 -0.34 1.7 0 0 Z " fill="#AB30C3" transform="translate(76,8)"/>
<path d="M0 0 C12.21 0 24.42 0 37 0 C35.68 0.33 34.36 0.66 33 1 C33 1.66 33 2.32 33 3 C29.78548731 4.60725635 26.56387464 4.05748185 23 4 C23.33 3.01 23.66 2.02 24 1 C16.08 1 8.16 1 0 1 C0 0.67 0 0.34 0 0 Z " fill="#A939C0" transform="translate(25,4)"/>
<path d="M0 0 C2 0.75 2 0.75 4 3.75 C4 4.74 4 5.73 4 6.75 C5.65 7.08 7.3 7.41 9 7.75 C9 8.41 9 9.07 9 9.75 C5.25 10.875 5.25 10.875 3 9.75 C3 9.09 3 8.43 3 7.75 C2.401875 7.646875 1.80375 7.54375 1.1875 7.4375 C-1.33421352 6.64496146 -2.39685699 5.83408591 -4 3.75 C-4 2.76 -4 1.77 -4 0.75 C-2 -0.25 -2 -0.25 0 0 Z " fill="#BD3ADD" transform="translate(16,63.25)"/>
<path d="M0 0 C0.66 0.33 1.32 0.66 2 1 C2.3125 3.25 2.3125 3.25 2 6 C-0.25 8.3125 -0.25 8.3125 -3 10 C-4.32 10 -5.64 10 -7 10 C-7.433125 8.6078125 -7.433125 8.6078125 -7.875 7.1875 C-8.8875 3.90208333 -8.8875 3.90208333 -11 1 C-8.23723823 1.52268466 -5.6739124 2.10869587 -3 3 C-2.01 2.01 -1.02 1.02 0 0 Z " fill="#BC37D8" transform="translate(66,35)"/>
<path d="M0 0 C6.27 0 12.54 0 19 0 C19.33 0.99 19.66 1.98 20 3 C13.07 3 6.14 3 -1 3 C-0.67 2.01 -0.34 1.02 0 0 Z " fill="#A02CB8" transform="translate(81,125)"/>
<path d="M0 0 C6.27 0 12.54 0 19 0 C19 0.99 19 1.98 19 3 C12.4 3 5.8 3 -1 3 C-0.67 2.01 -0.34 1.02 0 0 Z " fill="#400456" transform="translate(25,56)"/>
<path d="M0 0 C4.875 0.875 4.875 0.875 6 2 C6.23481693 4.18292774 6.41363323 6.37203174 6.5625 8.5625 C6.64628906 9.76003906 6.73007813 10.95757812 6.81640625 12.19140625 C6.87699219 13.11824219 6.93757813 14.04507812 7 15 C4.525 14.01 4.525 14.01 2 13 C1.67 9.7 1.34 6.4 1 3 C0.34 3 -0.32 3 -1 3 C-0.67 2.01 -0.34 1.02 0 0 Z " fill="#BC3BD5" transform="translate(84,16)"/>
<path d="M0 0 C1.9375 0.375 1.9375 0.375 4 1 C4.33 1.66 4.66 2.32 5 3 C4.23816406 3.56267578 4.23816406 3.56267578 3.4609375 4.13671875 C-0.80386392 7.307367 -4.95087595 10.55824456 -9 14 C-9.66 13.67 -10.32 13.34 -11 13 C-11 12.34 -11 11.68 -11 11 C-10.34 10.67 -9.68 10.34 -9 10 C-8.67 9.01 -8.34 8.02 -8 7 C-7.01 7 -6.02 7 -5 7 C-4.731875 6.38125 -4.46375 5.7625 -4.1875 5.125 C-3 3 -3 3 0 1 C0 0.67 0 0.34 0 0 Z " fill="#400559" transform="translate(16,94)"/>
<path d="M0 0 C0.99 0.33 1.98 0.66 3 1 C3.66 5.62 4.32 10.24 5 15 C4.34 15 3.68 15 3 15 C3 15.66 3 16.32 3 17 C2.01 17 1.02 17 0 17 C0 11.39 0 5.78 0 0 Z " fill="#BC3AD7" transform="translate(0,28)"/>
<path d="M0 0 C1.98 0 3.96 0 6 0 C6.103125 0.78375 6.20625 1.5675 6.3125 2.375 C6.77595022 5.33045181 6.77595022 5.33045181 10 7 C9.67 8.32 9.34 9.64 9 11 C7.68 10.34 6.36 9.68 5 9 C5 8.34 5 7.68 5 7 C3.7934375 6.566875 3.7934375 6.566875 2.5625 6.125 C0 5 0 5 -1 3 C-0.67 2.01 -0.34 1.02 0 0 Z " fill="#85279B" transform="translate(96,102)"/>
<path d="M0 0 C0 1.65 0 3.3 0 5 C-0.598125 5.165 -1.19625 5.33 -1.8125 5.5 C-5.18837589 7.81488632 -6.00367083 11.19402257 -7 15 C-7.2183205 16.47493269 -7.4075274 17.95457257 -7.5625 19.4375 C-7.7790625 21.2009375 -7.7790625 21.2009375 -8 23 C-8.66 23.33 -9.32 23.66 -10 24 C-10.09038099 18.84828377 -9.84681133 14.08086796 -9 9 C-8.01 9 -7.02 9 -6 9 C-5.8453125 7.6078125 -5.8453125 7.6078125 -5.6875 6.1875 C-4.91225604 2.59318709 -4.01459602 0 0 0 Z " fill="#7F1E95" transform="translate(10,2)"/>
<path d="M0 0 C3 1 3 1 4.0625 3 C4.371875 3.66 4.68125 4.32 5 5 C5.66 5.33 6.32 5.66 7 6 C7 9.96 7 13.92 7 18 C6.67 18 6.34 18 6 18 C5.67 15.69 5.34 13.38 5 11 C2.03 10.505 2.03 10.505 -1 10 C-0.7525 8.824375 -0.7525 8.824375 -0.5 7.625 C0.0623707 5.11791961 0.0623707 5.11791961 0 3 C0 2.01 0 1.02 0 0 Z " fill="#AB37C2" transform="translate(84,7)"/>
<path d="M0 0 C1.65 0.33 3.3 0.66 5 1 C5 2.32 5 3.64 5 5 C7.31 5 9.62 5 12 5 C12 7.31 12 9.62 12 12 C11.67 11.01 11.34 10.02 11 9 C10.278125 8.896875 9.55625 8.79375 8.8125 8.6875 C5.7403228 7.93652335 3.65977458 6.67985763 1 5 C0.01 4.67 -0.98 4.34 -2 4 C-1.34 2.68 -0.68 1.36 0 0 Z " fill="#A330B9" transform="translate(31,26)"/>
<path d="M0 0 C4.29 0 8.58 0 13 0 C13 0.99 13 1.98 13 3 C11.68 2.67 10.36 2.34 9 2 C8.67 2.99 8.34 3.98 8 5 C5.36 5 2.72 5 0 5 C0 3.33333333 0 1.66666667 0 0 Z " fill="#A231B8" transform="translate(59,24)"/>
<path d="M0 0 C1.65 0 3.3 0 5 0 C5.33 0.99 5.66 1.98 6 3 C6.99 3 7.98 3 9 3 C8.67 4.65 8.34 6.3 8 8 C5.69 8.33 3.38 8.66 1 9 C-0.4783226 6.04335481 -0.06032783 3.25770263 0 0 Z " fill="#AD3CC2" transform="translate(29,73)"/>
<path d="M0 0 C-0.33 0.66 -0.66 1.32 -1 2 C-5.29 2 -9.58 2 -14 2 C-13.67 0.68 -13.34 -0.64 -13 -2 C-7.69990734 -3.32502317 -4.74286737 -2.5408218 0 0 Z " fill="#A23CB6" transform="translate(45,83)"/>
<path d="M0 0 C0.66 0.33 1.32 0.66 2 1 C1.67 2.65 1.34 4.3 1 6 C0.01 6 -0.98 6 -2 6 C-2.33 6.66 -2.66 7.32 -3 8 C-3 7.34 -3 6.68 -3 6 C-3.99 6 -4.98 6 -6 6 C-6.66 7.32 -7.32 8.64 -8 10 C-9.98 10 -11.96 10 -14 10 C-14.33 9.34 -14.66 8.68 -15 8 C-9.99067246 4.99440348 -6.67276511 4.70658112 -1 5 C-0.67 3.35 -0.34 1.7 0 0 Z " fill="#A438B8" transform="translate(58,75)"/>
<path d="M0 0 C0.99 0.33 1.98 0.66 3 1 C3 7.6 3 14.2 3 21 C2.01 21.33 1.02 21.66 0 22 C0 17.71 0 13.42 0 9 C0.66 9 1.32 9 2 9 C2 8.01 2 7.02 2 6 C1.34 5.67 0.68 5.34 0 5 C0 3.35 0 1.7 0 0 Z " fill="#540C69" transform="translate(98,33)"/>
<path d="M0 0 C2 1 2 1 2.703125 2.890625 C4.50854588 10.67972653 4.50854588 10.67972653 2 15 C1.34 15 0.68 15 0 15 C-1.6117046 10.1648862 -1.60116168 4.80348505 0 0 Z " fill="#9B32B0" transform="translate(94,77)"/>
<path d="M0 0 C0.99 0 1.98 0 3 0 C3.33 0.66 3.66 1.32 4 2 C4.99 1.67 5.98 1.34 7 1 C7 2.65 7 4.3 7 6 C3.7 6.66 0.4 7.32 -3 8 C-3.33 6.68 -3.66 5.36 -4 4 C-2.35 3.34 -0.7 2.68 1 2 C0.34 1.67 -0.32 1.34 -1 1 C-0.67 0.67 -0.34 0.34 0 0 Z " fill="#A636BC" transform="translate(75,25)"/>
<path d="M0 0 C0.33 0 0.66 0 1 0 C1 5.28 1 10.56 1 16 C0.01 15.67 -0.98 15.34 -2 15 C-2 10.71 -2 6.42 -2 2 C-1.34 2 -0.68 2 0 2 C0 1.34 0 0.68 0 0 Z " fill="#923FA1" transform="translate(95,62)"/>
<path d="M0 0 C0.66 0.99 1.32 1.98 2 3 C4.55183404 4.20450304 4.55183404 4.20450304 7 5 C7 5.66 7 6.32 7 7 C3.37 7 -0.26 7 -4 7 C-4 5.68 -4 4.36 -4 3 C-3.01 2.67 -2.02 2.34 -1 2 C-0.67 1.34 -0.34 0.68 0 0 Z " fill="#500775" transform="translate(4,121)"/>
<path d="M0 0 C3.65316671 1.24976756 4.78065836 1.67098753 7 5 C7.89191159 11.41389362 6.45544924 17.77535547 5 24 C4.67 24 4.34 24 4 24 C3.90965569 18.83029757 3.95497837 14.07581935 5 9 C4.65172788 5.16900665 2.73674757 3.56018321 0 1 C0 0.67 0 0.34 0 0 Z " fill="#6D1888" transform="translate(101,104)"/>
<path d="M0 0 C0.62261719 0.31710938 1.24523437 0.63421875 1.88671875 0.9609375 C6.18321806 2.39490088 10.31008848 2.46383986 14.8125 2.625 C15.69615234 2.66367188 16.57980469 2.70234375 17.49023438 2.7421875 C19.65982972 2.83600784 21.82988547 2.91907326 24 3 C24.33 4.32 24.66 5.64 25 7 C24.01 6.67 23.02 6.34 22 6 C22 5.34 22 4.68 22 4 C15.4 4 8.8 4 2 4 C1.34 2.68 0.68 1.36 0 0 Z " fill="#9326A9" transform="translate(78,121)"/>
<path d="M0 0 C0.66 0 1.32 0 2 0 C2 2 2 2 0.75 3.5 C-2.10522576 5.94733637 -5.25136447 7.50018193 -9 8 C-9.66 7.34 -10.32 6.68 -11 6 C-11 4 -11 4 -9 2 C-5.9375 1.875 -5.9375 1.875 -3 2 C-2.67 2 -2.34 2 -2 2 C-1.34 1.34 -0.68 0.68 0 0 Z " fill="#65127A" transform="translate(67,45)"/>
<path d="M0 0 C1.32 0 2.64 0 4 0 C4 1.32 4 2.64 4 4 C3.01 4 2.02 4 1 4 C1 6.31 1 8.62 1 11 C0.01 11.33 -0.98 11.66 -2 12 C-2.73323796 14.01508358 -2.73323796 14.01508358 -3 16 C-3 13.36 -3 10.72 -3 8 C-2.34 8 -1.68 8 -1 8 C-0.67 5.36 -0.34 2.72 0 0 Z " fill="#631178" transform="translate(11,14)"/>
<path d="M0 0 C0 0.66 0 1.32 0 2 C0.66 2.33 1.32 2.66 2 3 C0.14375 2.938125 0.14375 2.938125 -1.75 2.875 C-5.06377508 2.8691556 -7.14827559 3.20446981 -10 5 C-10.99 5.33 -11.98 5.66 -13 6 C-12.67 4.68 -12.34 3.36 -12 2 C-10.68 2 -9.36 2 -8 2 C-8 1.34 -8 0.68 -8 0 C-4.71023192 -1.09658936 -3.28696233 -0.79953138 0 0 Z " fill="#4F0A64" transform="translate(73,121)"/>
<path d="M0 0 C0.33 1.65 0.66 3.3 1 5 C-0.6875 5.6875 -0.6875 5.6875 -3 6 C-5.75 4.6875 -5.75 4.6875 -8 3 C-8 2.34 -8 1.68 -8 1 C-4.93251126 -0.86240388 -3.40254489 -1.2151946 0 0 Z " fill="#CB36E5" transform="translate(64,33)"/>
<path d="M0 0 C0.99 0 1.98 0 3 0 C5.13586678 3.20380017 5.23132175 4.01939967 5.125 7.6875 C5.10695313 8.49574219 5.08890625 9.30398437 5.0703125 10.13671875 C5.03550781 11.05904297 5.03550781 11.05904297 5 12 C4.67 12 4.34 12 4 12 C3.67 9.03 3.34 6.06 3 3 C2.34 3 1.68 3 1 3 C0.34 6.3 -0.32 9.6 -1 13 C-1.33 13 -1.66 13 -2 13 C-2.16682272 8.07872966 -2.24828052 4.49656104 0 0 Z " fill="#8F1FA5" transform="translate(73,90)"/>
<path d="M0 0 C1.4606285 2.64738916 2 3.89448334 2 7 C1.01 7 0.02 7 -1 7 C-1.33 8.65 -1.66 10.3 -2 12 C-2.66 12 -3.32 12 -4 12 C-4.33 10.02 -4.66 8.04 -5 6 C-4.01 5.67 -3.02 5.34 -2 5 C-0.78130071 2.49552484 -0.78130071 2.49552484 0 0 Z " fill="#C43DE5" transform="translate(8,12)"/>
<path d="M0 0 C1.98 0 3.96 0 6 0 C6.33 0.99 6.66 1.98 7 3 C8.65 3 10.3 3 12 3 C11.01 3.33 10.02 3.66 9 4 C9 4.66 9 5.32 9 6 C9.99 6.33 10.98 6.66 12 7 C10.35 7 8.7 7 7 7 C6.67 6.01 6.34 5.02 6 4 C5.01 4 4.02 4 3 4 C3 3.01 3 2.02 3 1 C2.01 0.67 1.02 0.34 0 0 Z " fill="#7F1C95" transform="translate(21,65)"/>
<path d="M0 0 C0.66 0 1.32 0 2 0 C1.98259766 0.90492187 1.98259766 0.90492187 1.96484375 1.828125 C1.95582031 2.62734375 1.94679688 3.4265625 1.9375 4.25 C1.92589844 5.03890625 1.91429687 5.8278125 1.90234375 6.640625 C1.99614694 8.90691002 2.36758937 10.8288895 3 13 C2.34 13 1.68 13 1 13 C1 12.01 1 11.02 1 10 C0.01 9.67 -0.98 9.34 -2 9 C-2.125 5.625 -2.125 5.625 -2 2 C-1.34 1.34 -0.68 0.68 0 0 Z " fill="#611175" transform="translate(22,34)"/>
<path d="M0 0 C4.7517398 0.43197635 6.92000054 1.32769295 10 5 C6.93109813 6.53445094 4.29905734 5.54984289 1 5 C0.67 3.35 0.34 1.7 0 0 Z " fill="#A130B7" transform="translate(16,29)"/>
<path d="M0 0 C1.32 0 2.64 0 4 0 C3.67 1.98 3.34 3.96 3 6 C-1.75 7 -1.75 7 -4 7 C-3.67 6.01 -3.34 5.02 -3 4 C-2.01 4 -1.02 4 0 4 C0 2.68 0 1.36 0 0 Z " fill="#7E1993" transform="translate(59,62)"/>
<path d="M0 0 C0.99 0 1.98 0 3 0 C3.144375 1.0725 3.28875 2.145 3.4375 3.25 C3.84683883 6.75091141 3.84683883 6.75091141 4.6875 9 C5.19200401 12.22882566 3.99783257 14.94780625 3 18 C2.67 18 2.34 18 2 18 C1.93941406 16.95199219 1.87882812 15.90398438 1.81640625 14.82421875 C1.73198262 13.44529952 1.64733553 12.06639395 1.5625 10.6875 C1.52318359 9.99720703 1.48386719 9.30691406 1.44335938 8.59570312 C1.25072585 5.52838465 0.97677283 2.93031848 0 0 Z " fill="#851C9A" transform="translate(95,31)"/>
<path d="M0 0 C0.99 0 1.98 0 3 0 C3 0.66 3 1.32 3 2 C3.99 2.33 4.98 2.66 6 3 C6.6875 5.0625 6.6875 5.0625 7 7 C4 9 4 9 1.3125 8.625 C0.549375 8.41875 -0.21375 8.2125 -1 8 C-1 7.34 -1 6.68 -1 6 C0.98 6 2.96 6 5 6 C4.67 5.34 4.34 4.68 4 4 C1.97536745 3.34786708 1.97536745 3.34786708 0 3 C0 2.01 0 1.02 0 0 Z " fill="#B231CC" transform="translate(20,67)"/>
<path d="M0 0 C1.98 0.99 1.98 0.99 4 2 C4 2.99 4 3.98 4 5 C4.99 5 5.98 5 7 5 C7 6.98 7 8.96 7 11 C6.67 10.01 6.34 9.02 6 8 C4.06669397 6.90833725 4.06669397 6.90833725 2 6 C1.34 5.34 0.68 4.68 0 4 C0 2.68 0 1.36 0 0 Z " fill="#84219A" transform="translate(81,0)"/>
<path d="M0 0 C0.33 0 0.66 0 1 0 C1.10832169 2.08218362 1.18573541 4.16599129 1.25 6.25 C1.29640625 7.41015625 1.3428125 8.5703125 1.390625 9.765625 C0.93035506 13.57666013 -0.05148444 14.65511755 -3 17 C-2.125 10.125 -2.125 10.125 -1 9 C-0.76807135 7.48530552 -0.58784762 5.96245438 -0.4375 4.4375 C-0.35371094 3.61121094 -0.26992187 2.78492187 -0.18359375 1.93359375 C-0.12300781 1.29550781 -0.06242187 0.65742187 0 0 Z " fill="#832A95" transform="translate(76,68)"/>
<path d="M0 0 C1.32 0 2.64 0 4 0 C4.33 1.65 4.66 3.3 5 5 C4.34 5 3.68 5 3 5 C3 5.66 3 6.32 3 7 C2.01 7 1.02 7 0 7 C0 4.69 0 2.38 0 0 Z " fill="#C53DE7" transform="translate(0,38)"/>
<path d="M0 0 C1.8125 0.125 1.8125 0.125 4 1 C5.625 3.8125 5.625 3.8125 7 7 C7.5878125 8.175625 7.5878125 8.175625 8.1875 9.375 C8.455625 9.91125 8.72375 10.4475 9 11 C7 11 7 11 5.4375 9.6875 C4 8 4 8 3 5 C2.01 4.34 1.02 3.68 0 3 C0 2.01 0 1.02 0 0 Z " fill="#831E99" transform="translate(4,61)"/>
<path d="M0 0 C1.65 0 3.3 0 5 0 C5.33 1.65 5.66 3.3 6 5 C4.02 5 2.04 5 0 5 C0 3.35 0 1.7 0 0 Z " fill="#79188E" transform="translate(11,29)"/>
<path d="M0 0 C2.375 -0.1875 2.375 -0.1875 5 0 C5.66 0.99 6.32 1.98 7 3 C6.01 3.495 6.01 3.495 5 4 C4.53476937 5.89533342 4.53476937 5.89533342 4.375 8.0625 C4.189375 10.0115625 4.189375 10.0115625 4 12 C3.67 12 3.34 12 3 12 C2.86722656 11.30132812 2.73445313 10.60265625 2.59765625 9.8828125 C2.42105469 8.97273438 2.24445313 8.06265625 2.0625 7.125 C1.88847656 6.22007813 1.71445313 5.31515625 1.53515625 4.3828125 C1.10036299 2.00043683 1.10036299 2.00043683 0 0 Z " fill="#520774" transform="translate(106,107)"/>
<path d="M0 0 C2.31 0 4.62 0 7 0 C7.33 0.66 7.66 1.32 8 2 C4.77208445 4.1519437 3.71599191 4.20086443 0 4 C0 2.68 0 1.36 0 0 Z " fill="#B439CB" transform="translate(14,25)"/>
<path d="M0 0 C0.66 0.33 1.32 0.66 2 1 C1.67 1.99 1.34 2.98 1 4 C-1.91038896 5.4158649 -4.846502 6.29922267 -8 7 C-7.67 5.68 -7.34 4.36 -7 3 C-5.5459375 2.814375 -5.5459375 2.814375 -4.0625 2.625 C-2.5465625 2.315625 -2.5465625 2.315625 -1 2 C-0.67 1.34 -0.34 0.68 0 0 Z " fill="#8D27A0" transform="translate(53,121)"/>
<path d="M0 0 C0.99 0 1.98 0 3 0 C3.33 2.31 3.66 4.62 4 7 C3.01 7.33 2.02 7.66 1 8 C1 7.34 1 6.68 1 6 C0.34 6 -0.32 6 -1 6 C-0.67 4.02 -0.34 2.04 0 0 Z " fill="#9F35B3" transform="translate(94,51)"/>
<path d="M0 0 C0.33 0.99 0.66 1.98 1 3 C1.99 3 2.98 3 4 3 C4 4.98 4 6.96 4 9 C4.99 9 5.98 9 7 9 C6.67 10.32 6.34 11.64 6 13 C5.01 12.34 4.02 11.68 3 11 C2.8125 7.875 2.8125 7.875 3 5 C2.01 4.67 1.02 4.34 0 4 C0 2.68 0 1.36 0 0 Z " fill="#66127A" transform="translate(88,8)"/>
<path d="M0 0 C2.475 0.495 2.475 0.495 5 1 C5.66 2.98 6.32 4.96 7 7 C5.68 7 4.36 7 3 7 C2.87625 6.030625 2.7525 5.06125 2.625 4.0625 C2.41875 3.051875 2.2125 2.04125 2 1 C1.34 0.67 0.68 0.34 0 0 Z " fill="#791A8D" transform="translate(50,40)"/>
<path d="M0 0 C0.99 0.66 1.98 1.32 3 2 C2.01 2.495 2.01 2.495 1 3 C0.27840576 4.64363134 -0.39351421 6.31050386 -1 8 C-1.66 7.67 -2.32 7.34 -3 7 C-3.625 4.4375 -3.625 4.4375 -4 2 C-2.68 1.34 -1.36 0.68 0 0 Z " fill="#962DAB" transform="translate(76,31)"/>
<path d="M0 0 C0.99 0 1.98 0 3 0 C3.22142255 1.95689659 3.4267568 3.91561952 3.625 5.875 C3.74101563 6.96554688 3.85703125 8.05609375 3.9765625 9.1796875 C3.98429687 10.11039063 3.99203125 11.04109375 4 12 C3.34 12.66 2.68 13.32 2 14 C1.01569664 9.93974866 1 6.16370811 1 2 C0.67 1.34 0.34 0.68 0 0 Z " fill="#A82DC0" transform="translate(83,21)"/>
<path d="M0 0 C1.65 0 3.3 0 5 0 C4.34 1.32 3.68 2.64 3 4 C2.01 4 1.02 4 0 4 C0 4.66 0 5.32 0 6 C-0.66 6 -1.32 6 -2 6 C-1.34 4.02 -0.68 2.04 0 0 Z " fill="#9F28B7" transform="translate(11,0)"/>
<path d="M0 0 C0 0.99 0 1.98 0 3 C-0.804375 3.12375 -1.60875 3.2475 -2.4375 3.375 C-3.7059375 3.684375 -3.7059375 3.684375 -5 4 C-5.33 4.66 -5.66 5.32 -6 6 C-6.33 4.68 -6.66 3.36 -7 2 C-4 0 -4 0 0 0 Z " fill="#B232CD" transform="translate(17,60)"/>
<path d="M0 0 C0.99 0.33 1.98 0.66 3 1 C3.05399736 2.45792884 3.09279177 3.91642712 3.125 5.375 C3.14820312 6.18710937 3.17140625 6.99921875 3.1953125 7.8359375 C3 10 3 10 1 12 C0.67 11.01 0.34 10.02 0 9 C0.66 9 1.32 9 2 9 C2 8.01 2 7.02 2 6 C1.34 5.67 0.68 5.34 0 5 C0 3.35 0 1.7 0 0 Z " fill="#49075E" transform="translate(98,33)"/>
<path d="M0 0 C0 0.99 0 1.98 0 3 C-4.75 4.125 -4.75 4.125 -7 3 C-7 2.01 -7 1.02 -7 0 C-2.25 -1.125 -2.25 -1.125 0 0 Z " fill="#AF40C4" transform="translate(75,26)"/>
<path d="M0 0 C0.99 0 1.98 0 3 0 C4.75 1.8125 4.75 1.8125 6 4 C5.67 4.99 5.34 5.98 5 7 C4.01 7 3.02 7 2 7 C1.814375 6.071875 1.814375 6.071875 1.625 5.125 C1.12802644 2.80879168 1.12802644 2.80879168 -1 1 C-0.67 0.67 -0.34 0.34 0 0 Z " fill="#711786" transform="translate(76,11)"/>
<path d="M0 0 C0.75 1.6875 0.75 1.6875 1 4 C-0.9375 6.75 -0.9375 6.75 -3 9 C-4.125 4.25 -4.125 4.25 -3 2 C-2.01 2 -1.02 2 0 2 C0 1.34 0 0.68 0 0 Z " fill="#87279C" transform="translate(67,66)"/>
<path d="M0 0 C0.99 0.66 1.98 1.32 3 2 C2.34 3.32 1.68 4.64 1 6 C-0.32 6 -1.64 6 -3 6 C-3 5.34 -3 4.68 -3 4 C-2.34 4 -1.68 4 -1 4 C-0.67 2.68 -0.34 1.36 0 0 Z " fill="#972CAB" transform="translate(71,112)"/>
<path d="M0 0 C0.99 0 1.98 0 3 0 C3 0.99 3 1.98 3 3 C3.99 3 4.98 3 6 3 C6.66 4.65 7.32 6.3 8 8 C7.01 7.67 6.02 7.34 5 7 C5 6.01 5 5.02 5 4 C4.01 4.33 3.02 4.66 2 5 C1.01 3.68 0.02 2.36 -1 1 C-0.67 0.67 -0.34 0.34 0 0 Z " fill="#3F0555" transform="translate(120,107)"/>
<path d="M0 0 C1.45606519 4.52092968 0.27032841 7.51648796 -1 12 C-1.33 12 -1.66 12 -2 12 C-2.05395478 10.37536158 -2.09277195 8.75021459 -2.125 7.125 C-2.14820312 6.22007813 -2.17140625 5.31515625 -2.1953125 4.3828125 C-2 2 -2 2 0 0 Z " fill="#911C9B" transform="translate(76,102)"/>
<path d="M0 0 C0.86625 0.4640625 0.86625 0.4640625 1.75 0.9375 C3.84294184 1.92583364 5.74535275 2.5168613 8 3 C8 4.32 8 5.64 8 7 C7.01 7 6.02 7 5 7 C5 6.01 5 5.02 5 4 C4.360625 3.896875 3.72125 3.79375 3.0625 3.6875 C2.381875 3.460625 1.70125 3.23375 1 3 C0.67 2.01 0.34 1.02 0 0 Z " fill="#68147C" transform="translate(13,72)"/>
<path d="M0 0 C-0.33 0.99 -0.66 1.98 -1 3 C-4.3 3.33 -7.6 3.66 -11 4 C-10.34 3.67 -9.68 3.34 -9 3 C-9 2.34 -9 1.68 -9 1 C-2.25 0 -2.25 0 0 0 Z " fill="#65107A" transform="translate(60,71)"/>
<path d="M0 0 C2.1519437 3.22791555 2.20086443 4.28400809 2 8 C1.01 8.33 0.02 8.66 -1 9 C-1.125 2.25 -1.125 2.25 0 0 Z " fill="#9134A1" transform="translate(78,68)"/>
<path d="M0 0 C3.14624993 -0.26218749 4.61837017 -0.24754367 7.3125 1.5 C8.1478125 2.2425 8.1478125 2.2425 9 3 C6.69 3.33 4.38 3.66 2 4 C1.34 2.68 0.68 1.36 0 0 Z " fill="#A82BC0" transform="translate(26,64)"/>
<path d="M0 0 C3.58237455 4.67266246 4.11073636 7.02023637 4 13 C3.67 13 3.34 13 3 13 C3 11.35 3 9.7 3 8 C2.01 7.67 1.02 7.34 0 7 C0 4.69 0 2.38 0 0 Z " fill="#5B0F6F" transform="translate(8,40)"/>
<path d="M0 0 C1.98 0.66 3.96 1.32 6 2 C6 3.32 6 4.64 6 6 C4.02 5.34 2.04 4.68 0 4 C0 2.68 0 1.36 0 0 Z " fill="#B23ECB" transform="translate(36,33)"/>
<path d="M0 0 C2.92879371 0.62759865 5.36095629 1.58622659 8 3 C7.67 3.99 7.34 4.98 7 6 C7 5.34 7 4.68 7 4 C4.69 4 2.38 4 0 4 C0 2.68 0 1.36 0 0 Z " fill="#66127B" transform="translate(36,27)"/>
<path d="M0 0 C0.97608217 2.92824652 1.08226668 4.95613276 1 8 C0.01 7.67 -0.98 7.34 -2 7 C-2 5.02 -2 3.04 -2 1 C-1.34 0.67 -0.68 0.34 0 0 Z " fill="#9F39B3" transform="translate(6,29)"/>
<path d="M0 0 C0.99 1.32 1.98 2.64 3 4 C2.01 4.33 1.02 4.66 0 5 C0 4.34 0 3.68 0 3 C-1.32 3 -2.64 3 -4 3 C-4.33 4.32 -4.66 5.64 -5 7 C-5.33 5.68 -5.66 4.36 -6 3 C-4.02 2.01 -2.04 1.02 0 0 Z " fill="#A62DBD" transform="translate(63,59)"/>
<path d="M0 0 C1.32 0.66 2.64 1.32 4 2 C4 3.65 4 5.3 4 7 C3.01 6.67 2.02 6.34 1 6 C1 5.34 1 4.68 1 4 C0.34 3.67 -0.32 3.34 -1 3 C-0.67 2.01 -0.34 1.02 0 0 Z " fill="#9F2BB6" transform="translate(7,46)"/>
<path d="M0 0 C1.32 1.65 2.64 3.3 4 5 C2 6 2 6 -2 6 C-2 4.68 -2 3.36 -2 2 C-1.34 2 -0.68 2 0 2 C0 1.34 0 0.68 0 0 Z " fill="#7B1690" transform="translate(46,34)"/>
<path d="M0 0 C0.66 0.33 1.32 0.66 2 1 C0.92598892 3.91517292 0.22189824 5.77810176 -2 8 C-3.34882814 5.30234372 -2.80338265 3.84835666 -2 1 C-1.34 0.67 -0.68 0.34 0 0 Z " fill="#801A95" transform="translate(71,33)"/>
<path d="M0 0 C0.99 1.32 1.98 2.64 3 4 C2.01 4.99 1.02 5.98 0 7 C-0.99 5.68 -1.98 4.36 -3 3 C-2.01 2.01 -1.02 1.02 0 0 Z " fill="#9628AB" transform="translate(82,28)"/>
<path d="M0 0 C2.31 0 4.62 0 7 0 C7 0.66 7 1.32 7 2 C4.29120665 3.35439668 1.99066732 3.06501451 -1 3 C-0.67 2.01 -0.34 1.02 0 0 Z " fill="#6D1582" transform="translate(59,24)"/>
<path d="M0 0 C1.65 0 3.3 0 5 0 C5 0.99 5 1.98 5 3 C2.03 3 -0.94 3 -4 3 C-2.68 2.67 -1.36 2.34 0 2 C0 1.34 0 0.68 0 0 Z " fill="#48095C" transform="translate(72,21)"/>
<path d="M0 0 C1.32 0 2.64 0 4 0 C4 0.66 4 1.32 4 2 C5.65 2 7.3 2 9 2 C9 2.33 9 2.66 9 3 C5.37 3 1.74 3 -2 3 C-1.34 2.67 -0.68 2.34 0 2 C0 1.34 0 0.68 0 0 Z " fill="#4D0B62" transform="translate(16,21)"/>
<path d="M0 0 C1.32 0 2.64 0 4 0 C4 1.32 4 2.64 4 4 C3.01 4 2.02 4 1 4 C0.67 4.99 0.34 5.98 0 7 C0 4.69 0 2.38 0 0 Z " fill="#88209E" transform="translate(11,14)"/>
<path d="M0 0 C1.98 0 3.96 0 6 0 C6 1.32 6 2.64 6 4 C3.03 3.505 3.03 3.505 0 3 C0 2.01 0 1.02 0 0 Z " fill="#9129A6" transform="translate(96,102)"/>
<path d="M0 0 C3 0 3 0 4.6875 1.3125 C6 3 6 3 6 6 C5.01 6 4.02 6 3 6 C2.01 4.02 1.02 2.04 0 0 Z " fill="#B535CF" transform="translate(3,55)"/>
<path d="M0 0 C0.66 0.33 1.32 0.66 2 1 C0.25 6.75 0.25 6.75 -2 9 C-3 6 -3 6 -1.5625 2.8125 C-1.046875 1.884375 -0.53125 0.95625 0 0 Z " fill="#9121A7" transform="translate(81,46)"/>
<path d="M0 0 C1.98 0.495 1.98 0.495 4 1 C2.68 2.32 1.36 3.64 0 5 C-0.33 4.34 -0.66 3.68 -1 3 C-0.67 2.01 -0.34 1.02 0 0 Z M-3 5 C-2.01 5.495 -2.01 5.495 -1 6 C-1.66 6.66 -2.32 7.32 -3 8 C-3 7.01 -3 6.02 -3 5 Z " fill="#A82CC1" transform="translate(54,28)"/>
<path d="M0 0 C0.99 0 1.98 0 3 0 C3 2.64 3 5.28 3 8 C2.34 7.67 1.68 7.34 1 7 C0.59270772 4.67843403 0.25561323 2.3431213 0 0 Z " fill="#440956" transform="translate(98,85)"/>
<path d="M0 0 C2.375 -0.1875 2.375 -0.1875 5 0 C5.66 0.99 6.32 1.98 7 3 C4.69 3 2.38 3 0 3 C0 2.01 0 1.02 0 0 Z " fill="#6A127F" transform="translate(31,82)"/>
<path d="M0 0 C2.31 0 4.62 0 7 0 C7.66 1.32 8.32 2.64 9 4 C5.85262818 3.30058404 2.97411124 2.23921302 0 1 C0 0.67 0 0.34 0 0 Z " fill="#9328A7" transform="translate(32,81)"/>
<path d="M0 0 C2.97 0 5.94 0 9 0 C8.01 1.485 8.01 1.485 7 3 C4.5 3.375 4.5 3.375 2 3 C1.34 2.01 0.68 1.02 0 0 Z " fill="#4E0B61" transform="translate(42,69)"/>
<path d="M0 0 C1.98 0 3.96 0 6 0 C6 1.32 6 2.64 6 4 C5.01 4 4.02 4 3 4 C3 3.01 3 2.02 3 1 C2.01 0.67 1.02 0.34 0 0 Z " fill="#711387" transform="translate(21,65)"/>
<path d="M0 0 C0.99 0.33 1.98 0.66 3 1 C3.33 2.98 3.66 4.96 4 7 C3.34 7 2.68 7 2 7 C2 6.34 2 5.68 2 5 C1.34 5 0.68 5 0 5 C0 3.35 0 1.7 0 0 Z " fill="#9F2CB6" transform="translate(11,53)"/>
<path d="M0 0 C2.56695636 0.39491636 4.67123994 0.83561997 7 2 C7 2.66 7 3.32 7 4 C5.68 4 4.36 4 3 4 C3 3.34 3 2.68 3 2 C1.68 1.67 0.36 1.34 -1 1 C-0.67 0.67 -0.34 0.34 0 0 Z " fill="#420856" transform="translate(45,39)"/>
<path d="M0 0 C2.375 0.3125 2.375 0.3125 5 1 C5.66 1.99 6.32 2.98 7 4 C5.68 4 4.36 4 3 4 C1.25 2 1.25 2 0 0 Z " fill="#BD2CD8" transform="translate(55,36)"/>
<path d="M0 0 C1.98 0.495 1.98 0.495 4 1 C3.34 1 2.68 1 2 1 C1.67 2.65 1.34 4.3 1 6 C0.34 5.67 -0.32 5.34 -1 5 C-0.67 3.35 -0.34 1.7 0 0 Z " fill="#9B28B2" transform="translate(12,24)"/>
<path d="M0 0 C-0.99 1.485 -0.99 1.485 -2 3 C-2.99 2.34 -3.98 1.68 -5 1 C-6.32567199 0.31822584 -7.65753688 -0.35191436 -9 -1 C-5.22102349 -2.0497157 -3.35080929 -2.10976881 0 0 Z " fill="#89259E" transform="translate(81,25)"/>
</svg>
